<?xml version="1.0" encoding="utf-8"?>
<!-- Generator: Adobe Illustrator 27.5.0, SVG Export Plug-In . SVG Version: 6.00 Build 0)  -->
<svg version="1.1" xmlns="http://www.w3.org/2000/svg" xmlns:xlink="http://www.w3.org/1999/xlink" x="0px" y="0px"
	 viewBox="0 0 500 500" style="enable-background:new 0 0 500 500;" xml:space="preserve">
<g id="BACKGROUND">
	<rect style="fill:#FFFFFF;" width="500" height="500"/>
</g>
<g id="OBJECTS">
	<g>
		<path style="fill:#CADFF5;" d="M223.874,182.654c-15.159-51.302-83.469-67.828-122.617-29.488c-0.562,0.551-1.124,1.11-1.685,1.68
			c-56.125,56.918-29.611,197.18,87.519,232.73c117.131,35.55,238.962-29.368,245.807-87.401
			c6.844-58.033-47.194-76.267-131.055-60.04C254.463,249.304,233.311,214.591,223.874,182.654z"/>
		<path style="fill:#CADFF5;" d="M68.306,287.623c-9.494-12.727-23.816-10.174-26.972,5.106c-1.043,5.05-0.808,11.366,1.749,19.208
			c9.739,29.873,29.494,38.138,39.537,18.912C88.818,318.982,77.715,300.236,68.306,287.623z"/>
		<path style="fill:#CADFF5;" d="M437.219,302.836c-0.577,11.348,9.638,17.912,19.39,12.216c3.223-1.883,6.296-5.076,8.701-10.274
			c9.164-19.803,1.08-34.576-14.97-30.717C440.434,276.443,437.791,291.589,437.219,302.836z"/>
		<path style="fill:#CADFF5;" d="M52.509,212.988c-4.172,6.465-12.383,6.031-15.489-0.957c-1.027-2.31-1.452-5.28-0.718-9.088
			c2.797-14.508,13.084-19.43,20.378-10.96C61.182,197.212,56.643,206.581,52.509,212.988z"/>
		<path style="fill:#CADFF5;" d="M279.376,171.622l1.514-7.562l-7.085-1.419c0.003-1.863-0.308-3.733-0.917-5.543l5.857-3.903
			l-4.276-6.418l-5.606,3.735c-1.658-1.697-3.61-3.005-5.725-3.884l1.42-7.086l-7.562-1.514l-1.463,7.303
			c-1.553,0.081-3.1,0.37-4.608,0.879l-3.902-5.859l-6.418,4.276l3.735,5.606c-1.697,1.658-3.005,3.61-3.884,5.725l-6.194-1.242
			l-1.516,7.562l6.412,1.284c0.103,1.981,0.538,3.957,1.34,5.845l-5.607,3.735l4.276,6.418l5.859-3.902
			c1.671,1.467,3.582,2.572,5.624,3.297l-1.429,7.128l7.562,1.514l1.549-7.728c1.664-0.177,3.315-0.598,4.903-1.273l3.735,5.608
			l6.418-4.276l-3.902-5.857c1.049-1.195,1.913-2.512,2.586-3.915L279.376,171.622z M260.382,168.518
			c-3.244,2.161-7.641,1.281-9.802-1.964c-2.161-3.244-1.281-7.641,1.963-9.802c3.244-2.161,7.641-1.281,9.802,1.964
			C264.506,161.96,263.626,166.357,260.382,168.518z"/>
		<path style="fill:#CADFF5;" d="M241.546,127.744l0.811-4.136l-3.875-0.76c-0.002-1.019-0.176-2.039-0.513-3.027l3.193-2.145
			l-2.351-3.499l-3.056,2.053c-0.91-0.924-1.979-1.634-3.137-2.11l0.761-3.876l-4.136-0.811l-0.784,3.994
			c-0.849,0.047-1.693,0.209-2.516,0.49l-2.145-3.194l-3.499,2.351l2.053,3.056c-0.924,0.91-1.634,1.979-2.11,3.137l-3.388-0.665
			l-0.812,4.136l3.507,0.688c0.061,1.083,0.303,2.161,0.745,3.191l-3.057,2.053l2.351,3.498l3.194-2.145
			c0.916,0.798,1.963,1.398,3.081,1.79l-0.766,3.899l4.136,0.811l0.83-4.227c0.909-0.1,1.811-0.334,2.677-0.706l2.053,3.057
			l3.498-2.351l-2.145-3.193c0.571-0.655,1.04-1.377,1.405-2.145L241.546,127.744z M231.159,126.088
			c-1.768,1.188-4.173,0.716-5.361-1.052c-1.188-1.768-0.716-4.173,1.052-5.361c1.769-1.188,4.173-0.716,5.361,1.052
			C233.399,122.495,232.928,124.9,231.159,126.088z"/>
		<path style="fill:#CADFF5;" d="M431.848,222.591l0.811-4.136l-3.875-0.76c-0.002-1.019-0.176-2.039-0.513-3.027l3.193-2.145
			l-2.351-3.499l-3.056,2.053c-0.91-0.924-1.979-1.634-3.137-2.11l0.761-3.876l-4.136-0.811l-0.784,3.994
			c-0.849,0.047-1.693,0.209-2.517,0.49l-2.145-3.193l-3.499,2.35l2.053,3.056c-0.924,0.91-1.634,1.979-2.11,3.137l-3.387-0.665
			l-0.812,4.136l3.507,0.688c0.06,1.083,0.303,2.161,0.745,3.191l-3.057,2.053l2.351,3.498l3.194-2.145
			c0.916,0.798,1.963,1.398,3.081,1.79l-0.766,3.899l4.136,0.811l0.83-4.226c0.909-0.1,1.811-0.334,2.677-0.706l2.053,3.057
			l3.498-2.351l-2.145-3.193c0.571-0.655,1.04-1.377,1.405-2.145L431.848,222.591z M421.461,220.934
			c-1.768,1.188-4.173,0.716-5.361-1.052c-1.188-1.768-0.716-4.173,1.052-5.361c1.768-1.188,4.173-0.716,5.361,1.052
			C423.701,217.342,423.229,219.747,421.461,220.934z"/>
	</g>
	<g>
		<path style="fill:#015288;" d="M331.787,238.537l1.779,3.449l2.263-2.491l-14.808-28.714c0.292-3.028,1.153-7.248,3.377-12.348
			c4.154-9.527,6.886-20.412,0.396-18.971c-5.632,1.251-8.34,13.76-6.78,25.488l-5.728-11.107
			c-1.185-3.738-2.888-9.072-3.202-15.261c-0.727-14.341-4.058-27.785-10.543-23.312c-6.492,4.477-0.322,27.504,11.675,41.437
			l2.948,5.715c-8.566-10.307-23.588-17.809-28.558-13.329c-4.938,4.452,5.516,8.538,15.686,10.677
			c7.742,1.629,12.437,4.469,14.673,6.145l13.922,26.995c-13.611-16.283-37.335-28.1-45.198-21.011
			c-7.835,7.064,8.752,13.547,24.889,16.942C320.771,231.408,328.206,235.871,331.787,238.537z"/>
		<path style="fill:#015288;" d="M168.026,261.157l-1.859,3.406l-2.204-2.543l15.475-28.36c-0.221-3.034-0.983-7.273-3.087-12.424
			c-3.93-9.621-6.407-20.568,0.048-18.975c5.602,1.382,8.016,13.951,6.182,25.64l5.986-10.97c1.273-3.71,3.099-9.002,3.558-15.182
			c1.062-14.32,4.706-27.682,11.085-23.059c6.386,4.628-0.32,27.504-12.64,41.153l-3.08,5.645
			c8.805-10.104,23.998-17.253,28.861-12.658c4.832,4.566-5.714,8.406-15.931,10.308c-7.778,1.447-12.537,4.177-14.813,5.8
			l-14.549,26.662c13.988-15.96,37.982-27.219,45.677-19.949c7.668,7.245-9.066,13.339-25.278,16.355
			C179.204,254.287,171.667,258.575,168.026,261.157z"/>
		<g>
			<g>
				<g>
					<path style="fill:#015288;" d="M388.68,370.954l27.487,4.228c3.521-4.487,6.418-9.155,6.303-12.262
						c-0.287-7.777-6.906-16.891-0.189-21.949c6.717-5.058,13.742-14.185,5.444-24.48c-8.299-10.295-1.718-32.33-1.718-32.33
						s-14.483,9.206-14.562,26.551c-0.079,17.345-4.557,15.711-14.469,22.85c-9.913,7.139-16.448,10.031-9.564,28.984
						C388.438,365.367,388.803,368.194,388.68,370.954z"/>
				</g>
			</g>
			<g>
				<path style="fill:#01305A;" d="M404.376,373.368l1.151,0.177c0.41-4.921-0.065-9.594-1.425-13.297
					c-2.963-8.066,0.558-16.305,11.416-26.714c6.983-6.694,4.784-17.581,4.687-18.041c-0.064-0.308-0.368-0.506-0.679-0.441
					c-0.308,0.064-0.506,0.368-0.442,0.677c0.024,0.107,2.161,10.73-4.359,16.979c-11.231,10.767-14.837,19.383-11.695,27.933
					C404.304,364.116,404.752,368.636,404.376,373.368z"/>
			</g>
		</g>
		<g>
			<g>
				<g>
					<path style="fill:#3B73A9;" d="M431.991,400.055h-28.865c-0.008-0.029-0.017-0.058-0.025-0.087
						c-0.811-2.883-1.269-5.851-1.371-8.845c-0.343-10.103-0.515-35.473,6.015-41.97c8.209-8.168,24.662-11.36,22.491-23.682
						c-2.171-12.322-0.545-29.382,18.934-32.154c19.479-2.772,34.694-33.422,34.694-33.422s6.406,24.718-11.119,43.665
						c-17.525,18.947-10.995,21.715-7.462,39.546c3.533,17.83,7.706,27.611-19.026,41.237
						C439.009,388.037,434.587,393.726,431.991,400.055z"/>
				</g>
			</g>
			<g>
				<path style="fill:#015288;" d="M446.848,324.156c1.283,23.115-3.542,36.147-15.641,42.258
					c-7.598,3.84-15.584,12.4-20.839,22.338c-1.659,3.138-3.347,6.951-4.658,11.302h-1.777c1.366-4.676,3.163-8.761,4.928-12.099
					c5.494-10.389,13.561-19.01,21.579-23.059c11.412-5.766,15.948-18.303,14.706-40.647c-0.799-14.371,12.647-23.98,13.22-24.382
					c0.383-0.27,0.915-0.177,1.186,0.209c0.27,0.383,0.177,0.915-0.207,1.185C459.21,301.354,446.101,310.74,446.848,324.156z"/>
			</g>
		</g>
		<g>
			<g>
				<g>
					<path style="fill:#015288;" d="M93.35,298.246l23.852-14.301c-0.156-5.701-0.909-11.144-2.981-13.461
						c-5.188-5.801-16.101-8.587-14.163-16.769c1.939-8.182,1.516-19.692-11.445-22.314c-12.961-2.622-21.969-23.781-21.969-23.781
						s-5.265,16.333,5.751,29.731c11.016,13.398,6.527,15,3.459,26.824c-3.068,11.824-6.251,18.223,11.151,28.411
						C89.596,294.102,91.682,296.044,93.35,298.246z"/>
				</g>
			</g>
			<g>
				<path style="fill:#01305A;" d="M106.97,290.08l0.998-0.598c-2.827-4.049-6.177-7.341-9.589-9.322
					c-7.431-4.315-9.984-12.904-8.276-27.847c1.098-9.611-7.547-16.584-7.915-16.876c-0.247-0.196-0.607-0.154-0.804,0.094
					c-0.196,0.246-0.154,0.607,0.092,0.803c0.087,0.067,8.515,6.877,7.489,15.849c-1.766,15.458,0.961,24.391,8.839,28.964
					C101.006,283.006,104.238,286.198,106.97,290.08z"/>
			</g>
		</g>
		<g>
			<g>
				<g>
					<path style="fill:#3B73A9;" d="M103.715,342.347l27.928-7.294c0.001-0.03,0.001-0.06,0.002-0.09
						c0.056-2.995-0.251-5.982-0.909-8.904c-2.221-9.862-8.466-34.452-16.426-39.088c-10.006-5.828-26.732-4.759-27.746-17.23
						c-1.013-12.471-6.897-28.566-26.445-26.326c-19.548,2.24-42.014-23.57-42.014-23.57s0.049,25.535,21.792,39.438
						c21.744,13.903,16.126,18.232,17.213,36.376c1.087,18.144-0.478,28.662,28.829,35.09
						C93.888,332.493,99.604,336.88,103.715,342.347z"/>
				</g>
			</g>
			<g>
				<path style="fill:#015288;" d="M70.161,272.667c4.599,22.689,12.561,34.079,25.812,36.934
					c8.322,1.796,18.212,8.059,25.808,16.347c2.398,2.617,4.995,5.879,7.362,9.759l1.719-0.449
					c-2.503-4.178-5.274-7.677-7.825-10.461c-7.941-8.664-17.925-14.966-26.705-16.858c-12.499-2.694-20.056-13.678-24.501-35.612
					c-2.859-14.106-18.297-20.006-18.952-20.249c-0.439-0.165-0.93,0.06-1.094,0.502c-0.164,0.439,0.06,0.93,0.499,1.094
					C52.437,253.729,67.492,259.497,70.161,272.667z"/>
			</g>
		</g>
	</g>
	<g>
		<g>
			<g>
				<g>
					<path style="fill:#01305A;" d="M361.704,400.11c0.176-2.915,0.341-5.689,0.493-8.261c0.618-10.513,1.016-17.69,1.016-17.69
						l-4.118-0.184l-2.321-0.105l-27.993-1.244c0,0-0.51,8.026-1.11,19.812c-0.123,2.412-0.25,4.982-0.377,7.672H361.704z"/>
				</g>
			</g>
			<path style="fill:#001336;" d="M359.095,373.975l4.118,0.184c0,0-0.397,7.176-1.016,17.69
				c-10.756,0.897-22.498,1.262-34.526,0.589c0.6-11.786,1.11-19.812,1.11-19.812l27.993,1.244L359.095,373.975z"/>
			<g>
				<path style="fill:#001336;" d="M357.625,400.11c0.65-11.231,1.182-20.851,1.472-26.134l-2.321-0.104
					c-0.29,5.306-0.825,14.97-1.476,26.239H357.625z"/>
			</g>
		</g>
		<g>
			<g>
				<g>
					<path style="fill:#01305A;" d="M370.726,400.11h34.41c-0.127-2.69-0.254-5.26-0.377-7.672c-0.6-11.786-1.11-19.812-1.11-19.812
						l-27.993,1.244l-2.321,0.105l-4.118,0.184c0,0,0.397,7.176,1.016,17.69C370.385,394.421,370.551,397.195,370.726,400.11z"/>
				</g>
			</g>
			<path style="fill:#001336;" d="M373.336,373.975l-4.118,0.184c0,0,0.398,7.176,1.016,17.69
				c10.755,0.897,22.498,1.262,34.526,0.589c-0.6-11.786-1.11-19.812-1.11-19.812l-27.993,1.244L373.336,373.975z"/>
			<g>
				<path style="fill:#001336;" d="M377.132,400.11c-0.651-11.268-1.186-20.932-1.476-26.239l-2.321,0.104
					c0.289,5.283,0.822,14.903,1.472,26.134H377.132z"/>
			</g>
		</g>
		<g>
			<g>
				<g>
					<g>
						<g>
							<g>
								<path style="fill:#FD7C78;" d="M408.801,383.698c-28.931,5.871-57.21,4.877-85.669-0.993
									c0.025-33.663-0.342-51.391-0.261-59.917c0.012-1.148,0.022-2.294,0.039-3.444c0.007-0.531,0.01-1.065,0.015-1.6
									c0.012-0.799,0.02-1.603,0.027-2.407c0.002-0.224,0.002-0.455,0.007-0.678c0.007-0.256,0.012-0.519,0.012-0.779
									c0.002-0.054,0.002-0.108,0.002-0.162c0.005-0.632,0.012-1.266,0.025-1.893c0.007-0.497,0.015-0.993,0.022-1.485
									c0.003-0.423,0.012-0.841,0.02-1.261c0.007-0.693,0.02-1.389,0.027-2.082c0.002-0.172,0.002-0.349,0.007-0.521
									c0.02-1.175,0.037-2.343,0.057-3.508v-0.106c0.025-1.256,0.044-2.51,0.069-3.761c0.089-4.72,0.189-9.357,0.305-13.829
									c0.025-0.956,0.052-1.905,0.079-2.844c0.56-20.105,1.458-36.451,2.857-41.535c0.172-0.624,0.349-1.079,0.531-1.347
									c0.199-0.3,0.443-0.6,0.715-0.917c0.347-0.391,0.745-0.799,1.197-1.207c3.083-2.839,6.124-5.133,11.547-8.255
									c0.627-0.366,3.533-1.812,4.202-2.092c5.694-2.395,14.736-4.988,14.829-5.047l15.314,1.074
									c1.839,1.077,16.326,6.003,18.106,7.112c0.524,0.327,1.042,0.656,1.551,0.981c4.17,2.689,7.707,5.359,9.254,7.624
									c1.153,1.694,2.072,10.374,2.798,22.785c0.035,0.612,0.071,1.232,0.103,1.861c0.563,10.166,1.003,22.593,1.347,35.637
									c0.029,1.286,0.064,2.574,0.096,3.867c0.003,0.16,0.007,0.327,0.012,0.487c0.017,0.742,0.034,1.475,0.057,2.208
									c0.007,0.271,0.012,0.541,0.02,0.814c0.027,1.283,0.057,2.576,0.084,3.865c0.027,1.182,0.052,2.358,0.074,3.54
									c0.015,0.656,0.032,1.31,0.042,1.969c0.012,0.629,0.027,1.266,0.039,1.895c0.054,2.721,0.101,5.436,0.145,8.133
									c0.089,5.44,0.17,10.795,0.236,15.953c0.007,0.585,0.012,1.165,0.02,1.75C408.774,344.894,408.788,356.537,408.801,383.698z
									"/>
							</g>
						</g>
					</g>
				</g>
				<g>
					<path style="fill:#D64E5A;" d="M406.588,263.461l-7.439-2.613c-0.447-0.16-0.683-0.649-0.526-1.099
						c0.157-0.447,0.649-0.683,1.096-0.526l6.766,2.377C406.519,262.212,406.556,262.832,406.588,263.461z"/>
				</g>
				<g>
					<path style="fill:#D64E5A;" d="M329.553,277.737l-6.048,7.533c0.025-0.956,0.052-1.905,0.079-2.844l4.627-5.765
						c0.3-0.371,0.841-0.43,1.212-0.133C329.792,276.825,329.851,277.366,329.553,277.737z"/>
				</g>
				<g>
					<path style="fill:#D64E5A;" d="M393.403,356.673c-0.001,0-0.002,0-0.003,0c-15.402-0.068-28.548-7.076-36.864-12.944
						c-8.994-6.346-14.445-12.776-14.499-12.84c-0.263-0.313-0.223-0.78,0.09-1.044c0.314-0.263,0.781-0.223,1.044,0.09
						c0.053,0.063,5.405,6.371,14.253,12.607c8.135,5.734,20.982,12.583,35.983,12.649c0.409,0.002,0.74,0.335,0.738,0.744
						C394.142,356.344,393.811,356.673,393.403,356.673z"/>
				</g>
				<g>
					<path style="fill:#D64E5A;" d="M377.352,361.907c-13.365,0-26.692-7.616-27.298-7.967c-0.354-0.205-0.475-0.658-0.27-1.012
						c0.205-0.354,0.658-0.474,1.012-0.271c0.157,0.09,15.839,9.046,29.743,7.608c0.413-0.047,0.772,0.254,0.813,0.661
						c0.042,0.407-0.254,0.771-0.661,0.814C379.583,361.854,378.467,361.907,377.352,361.907z"/>
				</g>
				<g>
					<path style="fill:#D64E5A;" d="M323.132,302.861v0.104h84.898c-0.031-1.292-0.065-2.581-0.096-3.866h-84.733
						C323.175,300.349,323.156,301.603,323.132,302.861z"/>
					<path style="fill:#D64E5A;" d="M323.021,310.339h85.183c-0.027-1.289-0.058-2.581-0.085-3.866h-85.044
						c-0.004,0.173-0.004,0.35-0.008,0.523c-0.008,0.692-0.019,1.389-0.027,2.081C323.033,309.496,323.025,309.916,323.021,310.339z
						"/>
					<path style="fill:#D64E5A;" d="M322.925,317.744h85.433c-0.012-0.631-0.027-1.266-0.038-1.896
						c-0.012-0.658-0.027-1.312-0.042-1.97h-85.306c0,0.262-0.004,0.523-0.012,0.781c-0.004,0.223-0.004,0.454-0.008,0.677
						C322.944,316.14,322.936,316.944,322.925,317.744z"/>
				</g>
				<g>
					<g>
						<path style="fill:#D64E5A;" d="M371.084,255.316c0.375,0,0.709-0.266,0.781-0.647c0.082-0.432-0.202-0.848-0.633-0.93
							c-20.162-3.826-26.239-16.796-26.298-16.927c-0.18-0.4-0.652-0.579-1.053-0.397c-0.4,0.181-0.578,0.652-0.397,1.053
							c0.255,0.564,6.484,13.856,27.451,17.835C370.985,255.312,371.035,255.316,371.084,255.316z"/>
					</g>
				</g>
			</g>
			<g>
				<path style="fill:#01305A;" d="M344.349,175.511c0,0-1.502-9.179,0.727-12.304c2.228-3.125,5.863-2.187,9.749-5.781
					c3.885-3.593,15.712-0.156,20.892-1.094c2.849-0.516,5.88-0.133,8.668-0.699c3.988-0.808,6.121,3.154,5.161,7.054
					c-0.611,2.482-1.859,6.209-5.45,7.185C384.095,169.873,349.674,163.598,344.349,175.511z"/>
				<path style="fill:#01305A;" d="M343.564,182.843c0,13.295,8.185,22.457,21.48,22.457c13.295,0,22.56-9.851,22.56-23.146
					c0-13.295-7.873-23.367-21.167-23.367C350.491,158.787,343.564,169.548,343.564,182.843z"/>
				<g>
					<path style="fill:#FB9E82;" d="M346.551,188.567c0,0-3.694-4.925-6.44-0.853c-2.747,4.073,1.136,16.101,7.861,13.165
						L346.551,188.567z"/>
					<g>
						<g>
							<g>
								<path style="fill:#FC7972;" d="M346.503,197.162c-0.248,0-0.477-0.164-0.547-0.415c-1.042-3.713-4.889-5.219-4.928-5.234
									c-0.293-0.112-0.441-0.44-0.329-0.733c0.111-0.293,0.439-0.441,0.732-0.33c0.18,0.068,4.42,1.713,5.62,5.99
									c0.085,0.302-0.092,0.616-0.394,0.701C346.605,197.155,346.554,197.162,346.503,197.162z"/>
							</g>
						</g>
					</g>
					<g>
						<path style="fill:#FC7972;" d="M342.619,195.292c-0.105,0-0.212-0.029-0.307-0.091c-0.264-0.17-0.34-0.522-0.17-0.785
							c0.028-0.044,0.709-1.082,2.133-1.719c0.285-0.129,0.622,0,0.75,0.287c0.128,0.286,0,0.622-0.287,0.751
							c-1.101,0.493-1.636,1.29-1.641,1.298C342.989,195.2,342.806,195.292,342.619,195.292z"/>
					</g>
				</g>
				<g>
					<path style="fill:#FB9E82;" d="M384.616,188.567c0,0,3.694-4.925,6.44-0.853c2.747,4.073-1.136,16.101-7.861,13.165
						L384.616,188.567z"/>
					<g>
						<g>
							<g>
								<path style="fill:#FC7972;" d="M384.664,197.162c0.248,0,0.476-0.164,0.547-0.415c1.042-3.713,4.889-5.219,4.928-5.234
									c0.293-0.112,0.44-0.44,0.329-0.733c-0.111-0.293-0.439-0.441-0.732-0.33c-0.18,0.068-4.42,1.713-5.62,5.99
									c-0.085,0.302,0.091,0.616,0.394,0.701C384.562,197.155,384.613,197.162,384.664,197.162z"/>
							</g>
						</g>
					</g>
					<g>
						<g>
							<g>
								<path style="fill:#FC7972;" d="M388.548,195.292c0.105,0,0.212-0.029,0.307-0.091c0.264-0.17,0.34-0.522,0.17-0.785
									c-0.028-0.044-0.709-1.082-2.133-1.719c-0.285-0.129-0.622,0-0.75,0.287c-0.128,0.286,0,0.622,0.286,0.751
									c1.101,0.493,1.636,1.29,1.641,1.298C388.178,195.2,388.361,195.292,388.548,195.292z"/>
							</g>
						</g>
					</g>
				</g>
				<path style="fill:#FDBEAB;" d="M374.676,211.081v11.962c0,0-3.567,6.092-8.392,6.507c-4.819,0.421-9.102-5.245-9.102-5.245
					v-12.382L374.676,211.081z"/>
				<path style="fill:#FB9E82;" d="M374.676,211.081v5.308c-3.237,3.592-8.986,4.489-17.494,3.233v-7.7L374.676,211.081z"/>
				<path style="fill:#FDBEAB;" d="M344.59,188.341c0.049,0.693,0.106,1.394,0.175,2.103c0.179,1.781,0.42,3.612,0.746,5.434
					c0.012,0.065,0.02,0.126,0.033,0.184c1.606,8.821,5.218,17.492,13,20.272c17.63,6.294,23.924-8.821,26.443-17.634
					c0.277-0.978,0.53-2.067,0.75-3.229c0.008-0.045,0.016-0.094,0.029-0.147c0.245-1.304,0.456-2.695,0.636-4.125
					c0.135-1.06,0.249-2.136,0.351-3.22c0.257-2.633,0.424-5.275,0.534-7.619c0.257-5.356-2.951-10.285-7.969-12.209
					c-7.231-2.78-18.209-4.981-28.612,0.917c-3.844,2.177-6.253,6.212-6.339,10.627C344.321,182.133,344.357,185.125,344.59,188.341
					z"/>
				<path style="fill:#01305A;" d="M358.121,189.27c0,1.277-0.658,2.312-1.47,2.312c-0.812,0-1.47-1.035-1.47-2.312
					c0-1.277,0.658-2.312,1.47-2.312C357.463,186.958,358.121,187.992,358.121,189.27z"/>
				<path style="fill:#01305A;" d="M375.716,189.27c0,1.277-0.658,2.312-1.47,2.312c-0.812,0-1.47-1.035-1.47-2.312
					c0-1.277,0.658-2.312,1.47-2.312C375.058,186.958,375.716,187.992,375.716,189.27z"/>
				<path style="fill:#01305A;" d="M379.153,181.648c0,0-4.638-1.833-8.209-0.29l0.357,1.986c0,0,5.241-0.443,7.882,0.627
					C379.42,183.206,379.455,182.433,379.153,181.648z"/>
				<path style="fill:#01305A;" d="M351.651,181.648c0,0,4.638-1.833,8.209-0.29l-0.357,1.986c0,0-5.241-0.443-7.882,0.627
					C351.384,183.206,351.349,182.433,351.651,181.648z"/>
				<g>
					<g>
						<g>
							<path style="fill:#FB9E82;" d="M366.16,199.294c-0.952,0.116-1.941-0.138-2.094-0.18c-0.303-0.083-0.481-0.395-0.398-0.697
								c0.082-0.303,0.395-0.481,0.697-0.399c0.535,0.144,1.797,0.319,2.288-0.063c0.095-0.074,0.22-0.212,0.213-0.559
								c-0.037-1.995-1.384-8.531-1.397-8.597c-0.064-0.307,0.134-0.608,0.442-0.671c0.309-0.064,0.608,0.134,0.671,0.441
								c0.056,0.273,1.382,6.706,1.421,8.806c0.014,0.79-0.346,1.24-0.652,1.477C367.017,199.111,366.592,199.241,366.16,199.294z"
								/>
						</g>
					</g>
				</g>
				<path style="fill:#FFFFFF;" d="M358.391,202.702c0.464,2.337,2.008,6.636,7.208,6.636c5.213,0,6.675-3.928,7.177-6.636H358.391z
					"/>
				<path style="fill:#01305A;" d="M386.686,188.668h-2.576c0.285-2.585-0.655-5.71-1.431-7.792
					c-1.759-4.721,1.986-6.803-1.043-9.167c-3.029-2.37-10.568-1.354-15.811-1.524c-5.275-0.171-13.753-0.096-15.81,0.381
					c-2.063,0.472-0.932,3.896-0.176,6.55c0.761,2.648-2.529,5.581-3.08,8.326c-0.158,0.788-0.126,1.958,0.001,3.226h-2.147
					c-0.255-3.34-0.293-6.45-0.247-8.971c0.085-4.415,2.495-8.45,6.336-10.627c10.405-5.899,21.384-3.699,28.612-0.921
					c5.018,1.926,8.229,6.853,7.973,12.212C387.166,182.908,386.977,185.805,386.686,188.668z"/>
			</g>
		</g>
		<path style="fill:#FD7C78;" d="M326.972,239.543l-38.116,53.918l8.354,21.73l26.371-32.662
			C323.58,282.528,328.592,259.935,326.972,239.543z"/>
		<g>
			<path style="fill:#FD7C78;" d="M452.049,268.742c-1.746,3.115-6.043,3.798-11.383,3.137c-3.294-0.406-6.987-1.328-10.726-2.505
				c-12.678-3.995-25.833-8.617-25.833-8.617l-11.685-30.789c0,0,12.786,5.895,29.993,13.448c2.37,1.04,4.688,2.043,6.898,2.975
				c1.463,0.62,2.876,1.21,4.224,1.758c0.57,0.231,1.128,0.457,1.674,0.674c0,0,0.049-0.209,0.145-0.602
				c0.492-2.045,2.171-9.094,4.179-17.947c2.599-11.451,4.779-29.105,4.779-29.105l9.659,2.562
				C453.974,203.729,458.527,257.192,452.049,268.742z"/>
			<g>
				<path style="fill:#D64E5A;" d="M436.581,255.334c-0.455,0.135-0.934-0.125-1.072-0.58l-1.972-6.606
					c0.57,0.231,1.128,0.457,1.674,0.674c0,0,0.049-0.209,0.145-0.602l1.805,6.043C437.294,254.717,437.036,255.196,436.581,255.334
					z"/>
			</g>
			<path style="fill:#FDBEAB;" d="M449.547,205.195c-3.022,0.562-6.176-0.317-8.354-2.486c-0.745-0.741-1.407-1.653-1.8-2.752
				c-1.377-3.846-5.594-11.783-1.896-14.024c1.35-0.818,1.561,3.561,4.386,5.814c0,0,2.553-4.449,3.813-8.084
				c1.108-3.197,3.91-9.077,5.228-11.79c0.361-0.743,1.489-0.565,1.544,0.251c0.089,1.319-0.305,3.652-2.094,7.762
				c0,0,4.798-9.698,6.759-9.634s-4.26,12.084-4.26,12.084s5.744-8.656,7.199-7.926c0.886,0.444-3.767,10.361-3.767,10.361
				s6.1-7.693,5.906-4.896c-0.057,0.815-8.725,14.863-8.237,23.856C453.975,203.73,452.11,204.719,449.547,205.195z"/>
		</g>
	</g>
	<g>
		<path style="fill:#015288;" d="M443.303,407.355v0.694c0,4-3.244,7.245-7.247,7.245H60.191c-4.003,0-7.245-3.244-7.245-7.245
			v-0.694c0-4,3.242-7.245,7.245-7.245h375.864C440.058,400.11,443.303,403.354,443.303,407.355z"/>
		<path style="fill:#3B73A9;" d="M443.303,407.355v0.347H52.947v-0.347c0-4,3.242-7.245,7.245-7.245h375.864
			C440.058,400.11,443.303,403.354,443.303,407.355z"/>
	</g>
	<g>
		<g>
			<g>
				<g>
					<path style="fill:#3B73A9;" d="M400.933,121.275c-3.514,0-6.373-2.859-6.373-6.373s2.859-6.373,6.373-6.373
						c3.514,0,6.373,2.859,6.373,6.373S404.447,121.275,400.933,121.275z M400.933,110.528c-2.412,0-4.374,1.962-4.374,4.374
						c0,2.412,1.962,4.374,4.374,4.374c2.412,0,4.374-1.962,4.374-4.374C405.307,112.49,403.345,110.528,400.933,110.528z"/>
				</g>
				<g>
					<path style="fill:#FD7C78;" d="M423.876,143.634c-3.514,0-6.373-2.859-6.373-6.373c0-3.514,2.859-6.373,6.373-6.373
						c3.514,0,6.373,2.859,6.373,6.373C430.249,140.775,427.39,143.634,423.876,143.634z M423.876,132.887
						c-2.412,0-4.374,1.962-4.374,4.374c0,2.412,1.962,4.374,4.374,4.374c2.412,0,4.374-1.962,4.374-4.374
						C428.25,134.849,426.288,132.887,423.876,132.887z"/>
				</g>
				<g>
					<g>
						<g>
							<path style="fill:#3B73A9;" d="M431.75,164.344c-0.552,0-1-0.448-1-1v-4.409c0-0.552,0.448-1,1-1c0.552,0,1,0.447,1,1v4.409
								C432.75,163.897,432.303,164.344,431.75,164.344z"/>
						</g>
						<g>
							<path style="fill:#3B73A9;" d="M431.75,172.06c-0.552,0-1-0.448-1-1v-4.409c0-0.552,0.448-1,1-1c0.552,0,1,0.448,1,1v4.409
								C432.75,171.612,432.303,172.06,431.75,172.06z"/>
						</g>
					</g>
					<g>
						<g>
							<path style="fill:#3B73A9;" d="M437.939,165.998h-3.96c-0.552,0-1-0.448-1-1c0-0.552,0.448-1,1-1h3.96c0.552,0,1,0.448,1,1
								C438.938,165.55,438.491,165.998,437.939,165.998z"/>
						</g>
						<g>
							<path style="fill:#3B73A9;" d="M429.523,165.998h-3.96c-0.552,0-1-0.448-1-1c0-0.552,0.448-1,1-1h3.96c0.552,0,1,0.448,1,1
								C430.522,165.55,430.075,165.998,429.523,165.998z"/>
						</g>
					</g>
				</g>
				<g>
					<g>
						<g>
							<g>
								<path style="fill:#015288;" d="M396.559,139.641c-0.552,0-1-0.447-1-1v-4.409c0-0.552,0.448-1,1-1c0.552,0,1,0.448,1,1
									v4.409C397.559,139.193,397.111,139.641,396.559,139.641z"/>
							</g>
							<g>
								<path style="fill:#015288;" d="M396.559,147.356c-0.552,0-1-0.448-1-1v-4.409c0-0.552,0.448-1,1-1c0.552,0,1,0.448,1,1
									v4.409C397.559,146.908,397.111,147.356,396.559,147.356z"/>
							</g>
						</g>
						<g>
							<g>
								<path style="fill:#015288;" d="M402.748,141.294h-3.96c-0.552,0-1-0.448-1-1c0-0.552,0.448-1,1-1h3.96c0.552,0,1,0.448,1,1
									C403.747,140.846,403.3,141.294,402.748,141.294z"/>
							</g>
							<g>
								<path style="fill:#015288;" d="M394.331,141.294h-3.96c-0.552,0-1-0.448-1-1c0-0.552,0.448-1,1-1h3.96c0.552,0,1,0.448,1,1
									C395.331,140.846,394.883,141.294,394.331,141.294z"/>
							</g>
						</g>
					</g>
				</g>
			</g>
		</g>
		<g>
			<g>
				<g>
					<path style="fill:#3B73A9;" d="M96.819,111.536c0-3.514,2.859-6.373,6.373-6.373c3.514,0,6.373,2.859,6.373,6.373
						s-2.859,6.373-6.373,6.373C99.678,117.909,96.819,115.05,96.819,111.536z M98.818,111.536c0,2.412,1.962,4.374,4.374,4.374
						c2.412,0,4.374-1.962,4.374-4.374c0-2.412-1.962-4.374-4.374-4.374C100.78,107.162,98.818,109.124,98.818,111.536z"/>
				</g>
				<g>
					<path style="fill:#FD7C78;" d="M71.225,135.828c0-3.514,2.859-6.373,6.373-6.373c3.514,0,6.373,2.859,6.373,6.373
						c0,3.514-2.859,6.373-6.373,6.373C74.084,142.201,71.225,139.342,71.225,135.828z M73.224,135.828
						c0,2.412,1.962,4.374,4.374,4.374c2.412,0,4.374-1.962,4.374-4.374c0-2.412-1.962-4.374-4.374-4.374
						C75.186,131.454,73.224,133.416,73.224,135.828z"/>
				</g>
				<g>
					<g>
						<g>
							<path style="fill:#3B73A9;" d="M57.974,144.772c0.552,0,1-0.448,1-1v-4.409c0-0.552-0.448-1-1-1c-0.552,0-1,0.448-1,1v4.409
								C56.975,144.324,57.422,144.772,57.974,144.772z"/>
						</g>
						<g>
							<path style="fill:#3B73A9;" d="M57.974,152.487c0.552,0,1-0.447,1-1v-4.409c0-0.552-0.448-1-1-1c-0.552,0-1,0.448-1,1v4.409
								C56.975,152.039,57.422,152.487,57.974,152.487z"/>
						</g>
					</g>
					<g>
						<g>
							<path style="fill:#3B73A9;" d="M51.786,146.425h3.96c0.552,0,1-0.448,1-1c0-0.552-0.448-1-1-1h-3.96c-0.552,0-1,0.447-1,1
								C50.786,145.977,51.234,146.425,51.786,146.425z"/>
						</g>
						<g>
							<path style="fill:#3B73A9;" d="M60.202,146.425h3.961c0.552,0,1-0.448,1-1c0-0.552-0.448-1-1-1h-3.961c-0.552,0-1,0.447-1,1
								C59.202,145.977,59.65,146.425,60.202,146.425z"/>
						</g>
					</g>
				</g>
				<g>
					<g>
						<g>
							<g>
								<path style="fill:#015288;" d="M81.01,110.882c0.552,0,1-0.448,1-1v-4.409c0-0.552-0.448-1-1-1c-0.552,0-1,0.448-1,1v4.409
									C80.01,110.435,80.458,110.882,81.01,110.882z"/>
							</g>
							<g>
								<path style="fill:#015288;" d="M81.01,118.597c0.552,0,1-0.448,1-1v-4.409c0-0.552-0.448-1-1-1c-0.552,0-1,0.448-1,1v4.409
									C80.01,118.15,80.458,118.597,81.01,118.597z"/>
							</g>
						</g>
						<g>
							<g>
								<path style="fill:#015288;" d="M74.822,112.535h3.96c0.552,0,1-0.448,1-1s-0.448-1-1-1h-3.96c-0.552,0-1,0.447-1,1
									S74.27,112.535,74.822,112.535z"/>
							</g>
							<g>
								<path style="fill:#015288;" d="M83.238,112.535h3.96c0.552,0,1-0.448,1-1s-0.448-1-1-1h-3.96c-0.552,0-1,0.447-1,1
									S82.686,112.535,83.238,112.535z"/>
							</g>
						</g>
					</g>
				</g>
			</g>
		</g>
	</g>
	<g>
		<g>
			<g>
				<g>
					<path style="fill:#3B73A9;" d="M290.832,365.7c-0.017,0.443-0.047,1.055-0.086,1.861c-0.211,4.233-0.72,13.841-0.961,32.54
						h-84.378c0.015-17.18,0.029-26.834,0.044-32.087c0.01-2.766,0.02-4.312,0.029-5.094c0.002-0.224,0.005-0.448,0.007-0.669
						c0.015-1.212,0.032-2.424,0.049-3.636c0.037-2.579,0.079-5.145,0.12-7.695c0.541-31.062,1.645-59.155,3.828-62.363
						c2.763-4.076,13.062-9.718,21.609-14.416c0.194-0.103,0.386-0.211,0.578-0.317c0.251-0.14,0.507-0.275,0.75-0.41
						c0.792-0.438,1.563-0.865,2.306-1.281c3.147-1.751,5.794-3.297,7.336-4.452c0.497,0.856,2.599,5.608,6.436,5.962
						c4.211,0.396,7.955-4.914,7.955-4.914v-1.01c1.728,1.301,4.597,3.009,7.896,4.924c0.73,0.428,1.48,0.861,2.24,1.303
						c0.204,0.12,0.406,0.238,0.615,0.359c0.843,0.489,1.701,0.996,2.567,1.5c6.888,4.034,14.04,8.501,16.432,12.022
						c2.446,3.609,3.84,38.828,4.578,74.362c0.015,0.622,0.027,1.241,0.039,1.861c0.007,0.337,0.012,0.674,0.02,1.01
						C290.844,365.208,290.842,365.419,290.832,365.7z"/>
				</g>
			</g>
			<g>
				<path style="fill:#015288;" d="M212.558,350.588c-2.348,3.69-5.539,9.767-7.107,17.425c0.01-2.766,0.02-4.312,0.029-5.094
					c0.002-0.224,0.005-0.448,0.007-0.669c0.629-1.964,1.327-3.739,2.021-5.295c1.296-2.903,2.67-5.31,3.845-7.144
					c0.103-0.16,0.266-0.268,0.452-0.31h0.002C212.43,349.368,212.9,350.052,212.558,350.588z"/>
			</g>
			<g>
				<path style="fill:#015288;" d="M290.832,365.7c-0.017,0.443-0.047,1.055-0.086,1.861c-1.598-7.447-4.71-13.357-7.011-16.973
					c-0.342-0.536,0.128-1.219,0.75-1.087h0.003c0.187,0.042,0.349,0.15,0.452,0.31c1.175,1.834,2.549,4.241,3.845,7.144
					c0.686,1.539,1.377,3.292,1.999,5.232c0.015,0.622,0.027,1.241,0.039,1.861C290.827,364.495,290.83,365.041,290.832,365.7z"/>
			</g>
			<path style="fill:#3B73A9;" d="M221.694,290.702c0,0-14.69-17.134-4.471-29.268c10.218-12.134,34.537-11.045,42.539-9.803
				c8.001,1.242,31.438,15.18,14.678,34.948C257.679,306.347,221.694,290.702,221.694,290.702z"/>
			<g>
				<g>
					<path style="fill:#015288;" d="M224.669,356.355c6.846,5.362,16.052,10.014,28.189,11.714c0.468,0.065,0.886-0.309,0.876-0.781
						c0-0.005,0-0.011,0-0.016c-0.008-0.377-0.292-0.689-0.665-0.741c-11.828-1.656-20.79-6.19-27.458-11.413
						c-0.497-0.39-1.223-0.036-1.234,0.596c0,0.007,0,0.013,0,0.02C224.372,355.976,224.479,356.206,224.669,356.355z"/>
				</g>
				<g>
					<path style="fill:#015288;" d="M227.85,346.505v0.033c0,0.125,0.032,0.246,0.094,0.355c0.398,0.688,0.85,1.409,1.37,2.147
						c2.843,4.049,8.214,9.41,17.67,11.967c0.06,0.018,0.124,0.025,0.183,0.025c0.31,0,0.596-0.208,0.681-0.522
						c0.102-0.374-0.12-0.762-0.497-0.864c-10.179-2.753-15.511-8.895-18.179-13.5C228.808,345.515,227.847,345.776,227.85,346.505z
						"/>
				</g>
				<g>
					<path style="fill:#015288;" d="M258.485,286.614c-3.13,3.08-8.434,7.491-15.636,10.628c-0.26,0.113-0.431,0.368-0.431,0.652
						l0,0c0,0.512,0.525,0.863,0.994,0.66c3.992-1.729,7.32-3.791,9.902-5.672c2.569-1.873,4.635-3.72,6.182-5.252
						c0.136-0.135,0.208-0.315,0.208-0.506v-0.002C259.704,286.485,258.938,286.168,258.485,286.614z"/>
				</g>
			</g>
			<g>
				<path style="fill:#FFFFFF;" d="M238.011,352.273c-0.336,0-0.612-0.269-0.62-0.606c-0.662-29.834-0.007-60.057,0-60.359
					c0.008-0.337,0.284-0.606,0.62-0.606c0.004,0,0.009,0,0.014,0c0.342,0.008,0.613,0.291,0.606,0.634
					c-0.006,0.302-0.661,30.498,0,60.303c0.007,0.343-0.264,0.626-0.606,0.634C238.02,352.273,238.015,352.273,238.011,352.273z"/>
			</g>
			<g>
				<path style="fill:#FFFFFF;" d="M261.473,352.273c-0.004,0-0.009,0-0.014,0c-0.342-0.008-0.613-0.291-0.606-0.634
					c0.661-29.806,0.007-60.002,0-60.303c-0.007-0.343,0.264-0.626,0.606-0.634c0.005,0,0.01,0,0.014,0
					c0.336,0,0.612,0.269,0.62,0.606c0.007,0.302,0.661,30.525,0,60.359C262.085,352.004,261.809,352.273,261.473,352.273z"/>
			</g>
		</g>
		<g>
			<path style="fill:#01305A;" d="M271.051,230.834c0,13.083-8.055,22.099-21.137,22.099c-13.083,0-22.201-9.694-22.201-22.777
				c0-13.083,7.747-22.995,20.83-22.995C264.234,207.161,271.051,217.751,271.051,230.834z"/>
			<path style="fill:#01305A;" d="M229.422,239.434c0,0-4.835-1.309-6.488-7.011c-1.654-5.701,2.191-2.807,2.853-7.768
				c0.662-4.961-4.9-8.655,0-11.046c4.899-2.391,1.944-7.559,6.264-10.246c4.32-2.688,10.637,2.271,14.766-1.862
				c4.128-4.133,12.5-3.103,14.878,0c2.377,3.102,3.417,2.348,7.87,3.175c4.452,0.827,6.514,8.063,4.343,11.4
				c-2.171,3.337-0.66,5.581,1.419,7.648c2.079,2.067,0.632,16.258-6.5,14.279C261.694,236.024,229.422,239.434,229.422,239.434z"/>
			<g>
				<path style="fill:#FB9E82;" d="M268.112,236.467c0,0,3.635-4.846,6.337-0.839c2.703,4.008-1.118,15.844-7.735,12.955
					L268.112,236.467z"/>
				<g>
					<path style="fill:#FC7972;" d="M268.158,244.925c0.245,0,0.469-0.162,0.538-0.409c1.026-3.654,4.811-5.136,4.85-5.15
						c0.288-0.11,0.433-0.433,0.324-0.721c-0.109-0.288-0.432-0.434-0.72-0.325c-0.177,0.067-4.349,1.686-5.53,5.894
						c-0.083,0.297,0.09,0.606,0.387,0.689C268.058,244.918,268.108,244.925,268.158,244.925z"/>
				</g>
				<g>
					<g>
						<path style="fill:#FC7972;" d="M271.98,243.084c0.104,0,0.209-0.029,0.302-0.089c0.259-0.168,0.334-0.514,0.167-0.773
							c-0.028-0.043-0.698-1.065-2.099-1.692c-0.281-0.127-0.613,0-0.739,0.282c-0.126,0.282,0,0.612,0.282,0.739
							c1.083,0.485,1.61,1.269,1.615,1.277C271.616,242.994,271.796,243.084,271.98,243.084z"/>
					</g>
				</g>
			</g>
			<g>
				<path style="fill:#FB9E82;" d="M230.653,236.467c0,0-3.635-4.846-6.338-0.839c-2.703,4.008,1.119,15.844,7.736,12.955
					L230.653,236.467z"/>
				<g>
					<path style="fill:#FC7972;" d="M230.606,244.925c-0.245,0-0.469-0.162-0.538-0.409c-1.025-3.654-4.811-5.136-4.85-5.15
						c-0.288-0.11-0.433-0.433-0.324-0.721c0.109-0.288,0.432-0.434,0.72-0.325c0.177,0.067,4.349,1.686,5.53,5.894
						c0.083,0.297-0.09,0.606-0.387,0.689C230.706,244.918,230.656,244.925,230.606,244.925z"/>
				</g>
				<g>
					<g>
						<g>
							<path style="fill:#FC7972;" d="M226.784,243.084c-0.104,0-0.209-0.029-0.302-0.089c-0.26-0.168-0.335-0.514-0.168-0.773
								c0.028-0.043,0.698-1.065,2.099-1.692c0.28-0.127,0.612,0,0.738,0.282c0.126,0.282,0,0.612-0.282,0.739
								c-1.084,0.485-1.61,1.269-1.615,1.277C227.148,242.994,226.968,243.084,226.784,243.084z"/>
						</g>
					</g>
				</g>
			</g>
			<path style="fill:#FDBEAB;" d="M240.435,258.622v11.771c0,0,3.51,5.995,8.257,6.403c4.743,0.414,8.957-5.161,8.957-5.161V259.45
				L240.435,258.622z"/>
			<path style="fill:#FB9E82;" d="M240.435,258.622v5.223c3.185,3.535,8.843,4.418,17.215,3.182v-7.577L240.435,258.622z"/>
			<path style="fill:#FDBEAB;" d="M270.056,236.093c-0.178,2.494-0.472,5.127-0.955,7.75c-1.578,8.677-5.133,17.21-12.794,19.948
				c-17.343,6.194-23.543-8.683-26.02-17.354c-0.272-0.961-0.516-2.033-0.733-3.177c-0.394-2.066-0.7-4.372-0.939-6.694
				c-0.283-2.817-0.472-5.666-0.589-8.172c-0.256-5.277,2.905-10.122,7.844-12.021c7.111-2.733,17.915-4.894,28.154,0.911
				c3.783,2.139,6.155,6.111,6.238,10.455C270.306,230.099,270.273,232.982,270.056,236.093z"/>
			<path style="fill:#01305A;" d="M256.82,238.003c0,1.257,0.647,2.275,1.446,2.275c0.799,0,1.447-1.018,1.447-2.275
				c0-1.257-0.647-2.275-1.447-2.275C257.468,235.728,256.82,236.747,256.82,238.003z"/>
			<path style="fill:#01305A;" d="M239.771,237.956c0,1.257,0.647,2.275,1.446,2.275c0.799,0,1.447-1.019,1.447-2.275
				s-0.647-2.275-1.447-2.275C240.419,235.681,239.771,236.7,239.771,237.956z"/>
			<path style="fill:#01305A;" d="M264.003,231.578c0,0-5.542-2.19-9.808-0.347l0.427,2.373c0,0,6.262-0.529,9.418,0.749
				C264.322,233.44,264.363,232.517,264.003,231.578z"/>
			<path style="fill:#01305A;" d="M236.443,231.578c0,0,5.541-2.19,9.808-0.347l-0.427,2.373c0,0-6.262-0.529-9.418,0.749
				C236.124,233.44,236.083,232.517,236.443,231.578z"/>
			<g>
				<g>
					<path style="fill:#FB9E82;" d="M249.188,246.809c-0.944,0-1.879-0.367-2.024-0.426c-0.285-0.117-0.423-0.443-0.306-0.729
						c0.116-0.286,0.443-0.423,0.729-0.307c0.505,0.205,1.717,0.526,2.243,0.212c0.101-0.061,0.24-0.181,0.275-0.521
						c0.202-1.953-0.332-8.498-0.338-8.564c-0.025-0.308,0.204-0.578,0.511-0.603c0.309-0.026,0.578,0.204,0.603,0.511
						c0.022,0.273,0.549,6.716,0.336,8.771c-0.08,0.773-0.487,1.17-0.813,1.365C250.046,246.733,249.616,246.809,249.188,246.809z"
						/>
				</g>
			</g>
			<path style="fill:#FFFFFF;" d="M256.82,250.907c-0.457,2.299-1.976,6.53-7.093,6.53c-5.13,0-6.568-3.866-7.063-6.53H256.82z"/>
			<path style="fill:#01305A;" d="M228.616,236.566h2.534c-0.28-2.544-0.682-7.026,1.408-7.667c6.604-2.028-1.954-6.695,1.027-9.021
				c2.98-2.332,10.4-1.333,15.559-1.5c5.191-0.168,13.534-0.095,15.559,0.375c2.03,0.464,0.917,3.834,0.173,6.446
				c-0.749,2.606,2.488,5.492,3.031,8.193c0.156,0.775,0.123,1.927-0.001,3.174h2.113c0.251-3.287,0.288-6.347,0.243-8.828
				c-0.084-4.345-2.455-8.315-6.235-10.457c-10.239-5.805-21.043-3.641-28.156-0.906c-4.938,1.896-8.097,6.744-7.846,12.017
				C228.144,230.898,228.329,233.748,228.616,236.566z"/>
		</g>
		<path style="fill:#3B73A9;" d="M298.504,400.101c-2.905-12.498-5.682-24.945-5.713-30.823l-1.618-5.465l-5.922-20.01
			l-9.271-31.335c0,0,1.511-20.583,10.224-24.644c0,0,9.651,19.485,14.951,38.116c0.897,3.163,1.804,6.388,2.702,9.603
			c3.775,13.508,7.322,26.844,8.971,34.757c1.647,7.901,2.719,19.024,3.416,29.802H298.504z"/>
		<path style="fill:#3B73A9;" d="M197.639,400.101c2.905-12.498,5.682-24.945,5.713-30.823l1.618-5.465l5.922-20.01l9.271-31.335
			c0,0-1.966-19.848-10.679-23.91c0,0-9.197,18.751-14.496,37.382c-0.897,3.163-1.804,6.388-2.701,9.603
			c-3.775,13.508-7.322,26.844-8.971,34.757c-1.647,7.901-2.719,19.024-3.416,29.802H197.639z"/>
	</g>
	<g>
		<g>
			<g>
				<g>
					<path style="fill:#01305A;" d="M131.444,400.1c0.162-2.915,0.315-5.689,0.455-8.261c0.571-10.513,0.938-17.69,0.938-17.69
						l-3.802-0.184l-2.143-0.105l-25.85-1.244c0,0-0.471,8.026-1.025,19.812c-0.113,2.412-0.231,4.982-0.348,7.672H131.444z"/>
				</g>
			</g>
			<path style="fill:#001336;" d="M129.035,373.966l3.802,0.184c0,0-0.367,7.176-0.938,17.69
				c-9.932,0.896-20.775,1.262-31.882,0.589c0.554-11.786,1.025-19.812,1.025-19.812l25.85,1.244L129.035,373.966z"/>
			<g>
				<path style="fill:#001336;" d="M127.677,400.1c0.6-11.231,1.092-20.852,1.359-26.134l-2.144-0.104
					c-0.268,5.306-0.762,14.97-1.363,26.239H127.677z"/>
			</g>
		</g>
		<g>
			<g>
				<g>
					<path style="fill:#01305A;" d="M139.775,400.1h31.776c-0.117-2.69-0.235-5.26-0.348-7.672
						c-0.554-11.786-1.025-19.812-1.025-19.812l-25.85,1.244l-2.143,0.105l-3.802,0.184c0,0,0.367,7.176,0.938,17.69
						C139.461,394.411,139.613,397.185,139.775,400.1z"/>
				</g>
			</g>
			<path style="fill:#001336;" d="M142.185,373.966l-3.803,0.184c0,0,0.367,7.176,0.938,17.69
				c9.932,0.896,20.775,1.262,31.882,0.589c-0.554-11.786-1.025-19.812-1.025-19.812l-25.85,1.244L142.185,373.966z"/>
			<g>
				<path style="fill:#001336;" d="M145.69,400.1c-0.601-11.268-1.095-20.932-1.363-26.239l-2.144,0.104
					c0.267,5.283,0.759,14.903,1.359,26.134H145.69z"/>
			</g>
		</g>
		<path style="fill:#01305A;" d="M135.894,153.823c0,0-21.146-2.122-26.783,29.036c-5.637,31.157-9.432,50.684-8.155,67.254
			c1.277,16.571,55.628,12.16,64.061,3.841c8.433-8.319-0.769-63.916-2.857-78.699C160.073,160.472,144.295,152.352,135.894,153.823
			z"/>
		<g>
			<path style="fill:#FD7C78;" d="M102.461,303.242c0.098,1.89,0.179,3.8,0.246,5.721c0.394,11.484-3.491,27.963-4.863,68.012
				c22.255,6.684,51.084,5.741,76.619-0.084c-1.371-40.048-4.201-56.444-3.812-67.928c0.142-4.09,0.355-8.122,0.609-12.059
				c0.93-14.17,2.465-27.063,3.49-36.827c1.039-9.92,1.547-16.618,0.335-18.146c-1.047-1.324-2.761-2.736-4.858-4.174
				c-3.203-2.2-7.318-4.467-11.372-6.603c-0.768-0.405-1.533-0.804-2.29-1.198c-4.685-2.437-9.035-4.64-11.509-6.285
				c-3.074,1.338-5.52,2.072-8.153,2.055c-0.073,0-0.151,0-0.221-0.006c-0.078,0.006-0.156,0.006-0.226,0.006
				c-2.636,0.017-5.081-0.718-8.15-2.055c-2.627,1.748-7.472,4.183-12.598,6.866c-0.913,0.477-1.837,0.966-2.759,1.458
				c-2.566,1.374-5.118,2.786-7.416,4.188c-0.972,0.595-1.896,1.189-2.756,1.776c-2.197,1.491-3.979,2.946-5.045,4.297
				c-2.443,3.08,2.532,26.924,4.442,56.087C102.28,299.958,102.377,301.594,102.461,303.242z"/>
			<g>
				<path style="fill:#D64E5A;" d="M163.22,338.286c-0.001,0-0.002,0-0.003,0c-15.449-0.068-28.635-7.098-36.976-12.983
					c-9.021-6.365-14.488-12.814-14.543-12.879c-0.264-0.314-0.224-0.783,0.09-1.047c0.314-0.264,0.783-0.224,1.047,0.09
					c0.053,0.063,5.421,6.39,14.296,12.645c8.16,5.751,21.045,12.621,36.091,12.687c0.41,0.002,0.742,0.336,0.74,0.747
					C163.961,337.955,163.629,338.286,163.22,338.286z"/>
			</g>
			<g>
				<path style="fill:#D64E5A;" d="M152.992,329.293c-13.154-2.586-24.797-12.66-25.325-13.122c-0.309-0.27-0.34-0.74-0.07-1.049
					c0.27-0.309,0.74-0.34,1.049-0.071c0.137,0.119,13.838,11.967,27.801,13.242c0.415,0.034,0.71,0.399,0.673,0.807
					c-0.037,0.409-0.399,0.71-0.808,0.673C155.198,329.672,154.089,329.508,152.992,329.293z"/>
			</g>
			<g>
				<path style="fill:#D64E5A;" d="M130.717,256.34c-0.35,0-0.662-0.248-0.73-0.605c-0.076-0.403,0.188-0.792,0.592-0.869
					c18.834-3.574,24.511-15.69,24.566-15.812c0.169-0.374,0.609-0.54,0.983-0.371c0.374,0.169,0.54,0.609,0.371,0.983
					c-0.238,0.527-6.057,12.944-25.644,16.66C130.809,256.335,130.762,256.34,130.717,256.34z"/>
			</g>
			<path style="fill:#FDBEAB;" d="M156.566,229.955c-4.473,7.555-12.229,15.281-22.183,13.561
				c-9.166-1.583-14.773-7.46-18.673-12.98c5.126-2.683,9.971-5.118,12.598-6.866c3.068,1.338,5.514,2.072,8.15,2.055
				c0.07,0,0.148,0,0.226-0.006c0.07,0.006,0.148,0.006,0.221,0.006c2.633,0.017,5.079-0.718,8.153-2.055
				C147.531,225.315,151.881,227.518,156.566,229.955z"/>
			<g>
				<g>
					<path style="fill:#FFFFFF;" d="M122.306,228.261c-0.096,0-0.192-0.01-0.288-0.029c-0.093-0.017-0.187-0.047-0.275-0.084
						c-0.091-0.037-0.174-0.081-0.256-0.135c-0.081-0.054-0.155-0.116-0.224-0.184c-0.275-0.273-0.433-0.654-0.433-1.042
						c0-0.096,0.01-0.192,0.029-0.288c0.02-0.093,0.047-0.187,0.084-0.275c0.037-0.091,0.084-0.175,0.135-0.256
						c0.054-0.081,0.116-0.155,0.184-0.224c0.069-0.069,0.143-0.13,0.224-0.184c0.081-0.052,0.165-0.098,0.256-0.135
						c0.089-0.037,0.182-0.066,0.275-0.084c0.189-0.039,0.386-0.039,0.575,0c0.096,0.017,0.187,0.047,0.278,0.084
						c0.088,0.037,0.174,0.083,0.253,0.135c0.081,0.054,0.157,0.115,0.224,0.184c0.069,0.069,0.13,0.143,0.184,0.224
						c0.054,0.081,0.098,0.165,0.135,0.256c0.037,0.089,0.066,0.182,0.083,0.275c0.02,0.096,0.03,0.192,0.03,0.288
						c0,0.388-0.157,0.769-0.433,1.042c-0.066,0.069-0.143,0.13-0.224,0.184c-0.079,0.054-0.165,0.098-0.253,0.135
						c-0.091,0.037-0.182,0.066-0.278,0.084C122.5,228.251,122.401,228.261,122.306,228.261z"/>
				</g>
				<g>
					<path style="fill:#FFFFFF;" d="M137.462,266.342c0-0.005-0.003-0.007-0.003-0.012l0,0c-0.16,0.797-0.929,1.313-1.726,1.161l0,0
						c-0.794-0.155-1.315-0.919-1.17-1.711l0,0c-0.42,0.683-1.313,0.909-2.006,0.499l0,0c-0.696-0.408-0.932-1.295-0.538-1.994l0,0
						c-0.588,0.528-1.495,0.499-2.048-0.074l0,0c-0.551-0.573-0.548-1.475-0.002-2.043l0,0c-0.674,0.393-1.544,0.192-1.977-0.467
						l0,0c-0.43-0.656-0.27-1.529,0.354-1.991l0,0c-0.715,0.29-1.541-0.02-1.883-0.723l0,0c-0.342-0.701-0.076-1.536,0.588-1.92l0,0
						c-0.733,0.214-1.519-0.167-1.795-0.895l0,0c-0.275-0.723,0.059-1.529,0.747-1.854l0,0c-0.743,0.16-1.497-0.275-1.721-1.015l0,0
						c-0.224-0.74,0.16-1.517,0.863-1.797l0,0c-0.747,0.116-1.473-0.356-1.657-1.104l0,0c-0.184-0.75,0.238-1.505,0.954-1.75l0,0
						c-0.752,0.084-1.453-0.418-1.606-1.173l0,0c-0.152-0.755,0.298-1.49,1.02-1.706l0,0c-0.752,0.054-1.433-0.472-1.559-1.232l0,0
						c-0.123-0.757,0.352-1.473,1.079-1.664l0,0c-0.752,0.027-1.416-0.519-1.517-1.281v0.002c-0.101-0.762,0.396-1.463,1.128-1.632
						l0,0c-0.752,0.007-1.401-0.558-1.48-1.32l0,0c-0.081-0.762,0.433-1.451,1.168-1.601l0,0c-0.75-0.012-1.384-0.592-1.446-1.355
						l0,0c-0.061-0.764,0.47-1.441,1.207-1.571l0,0c-0.75-0.03-1.369-0.624-1.414-1.389l0,0c-0.044-0.77,0.509-1.433,1.256-1.546
						l0,0c-0.755-0.039-1.367-0.651-1.394-1.421h0.002c-0.03-0.814,0.607-1.497,1.421-1.524l0,0c0.816-0.029,1.497,0.61,1.527,1.424
						l0,0l0,0l0,0c0.024,0.757-0.524,1.401-1.256,1.509l0,0c0.738,0.039,1.345,0.63,1.389,1.386l0,0
						c0.044,0.755-0.487,1.409-1.21,1.536l0,0c0.735,0.03,1.35,0.602,1.411,1.355l0,0c0,0,0,0,0,0.002l0,0
						c0.062,0.75-0.452,1.416-1.173,1.564l0,0c0.735,0.01,1.362,0.568,1.443,1.318l0,0c0.079,0.75-0.416,1.428-1.134,1.593l0,0
						c0.735-0.007,1.377,0.533,1.478,1.281l0,0l0,0l0,0c0.098,0.745-0.376,1.433-1.084,1.62l0,0c0.73-0.027,1.387,0.494,1.507,1.234
						l0,0c0,0,0,0,0.003,0l0,0c0.12,0.74-0.332,1.443-1.033,1.652l0,0c0.73-0.052,1.401,0.445,1.549,1.18l0,0
						c0.147,0.735-0.278,1.45-0.966,1.687l0,0c0.723-0.079,1.411,0.388,1.591,1.114l0,0c0.179,0.723-0.209,1.453-0.883,1.723l0,0
						c0.715-0.11,1.421,0.317,1.637,1.03l0,0c0.214,0.708-0.13,1.453-0.779,1.76l0,0c0.701-0.15,1.426,0.229,1.687,0.92l0,0
						c0.261,0.686-0.025,1.443-0.639,1.799l0,0c0.679-0.199,1.421,0.113,1.741,0.769l0,0c0.315,0.649,0.113,1.414-0.445,1.829l0,0
						c0.642-0.26,1.396-0.039,1.79,0.558l0,0c0.381,0.585,0.295,1.343-0.167,1.827l0,0c0.573-0.332,1.323-0.246,1.802,0.253l0,0l0,0
						l0,0c0.462,0.482,0.536,1.192,0.224,1.745l0,0c0.467-0.418,1.168-0.507,1.736-0.172l0,0c0.546,0.322,0.809,0.941,0.703,1.532
						l0,0c0.312-0.507,0.917-0.794,1.537-0.674l0,0c0.619,0.12,1.074,0.612,1.175,1.2l0,0c0.116-0.578,0.575-1.052,1.19-1.16l0,0
						c0.597-0.106,1.175,0.165,1.487,0.641l0,0c-0.103-0.563,0.128-1.16,0.637-1.497l0,0l0,0l0,0
						c0.536-0.357,1.219-0.315,1.706,0.054l0,0c-0.344-0.519-0.332-1.219,0.076-1.733l0,0l0,0l0,0
						c0.43-0.538,1.163-0.698,1.763-0.425l0,0c-0.509-0.435-0.674-1.175-0.354-1.797l0,0c0,0,0,0,0,0.003l0,0
						c0.329-0.639,1.057-0.937,1.721-0.745l0,0c-0.6-0.354-0.88-1.094-0.634-1.772l0,0c0.251-0.686,0.956-1.074,1.652-0.947l0,0
						c-0.646-0.292-1.008-1.018-0.816-1.726l0,0l0,0l0,0c0.192-0.715,0.873-1.165,1.586-1.084l0,0
						c-0.676-0.246-1.089-0.954-0.944-1.679l0,0l0,0l0,0c0.148-0.728,0.804-1.222,1.524-1.182l0,0
						c-0.691-0.206-1.143-0.897-1.033-1.633l0,0c0.113-0.738,0.755-1.266,1.482-1.254l0,0c-0.708-0.174-1.192-0.851-1.111-1.596l0,0
						c0.084-0.742,0.706-1.295,1.433-1.31l0,0c-0.713-0.152-1.222-0.814-1.163-1.559l0,0c0.059-0.747,0.664-1.323,1.394-1.36l0,0
						c-0.72-0.128-1.249-0.774-1.21-1.524l0,0l0,0l0,0c0.037-0.75,0.629-1.342,1.357-1.397l0,0
						c-0.723-0.111-1.269-0.745-1.249-1.497l0,0l0,0l0,0c0.02-0.752,0.6-1.357,1.33-1.428l0,0c-0.73-0.093-1.291-0.718-1.288-1.468
						l0,0c0.002-0.75,0.56-1.364,1.283-1.458l0,0c-0.723-0.086-1.291-0.693-1.303-1.441l0,0l0,0l0,0
						c-0.012-0.747,0.531-1.374,1.251-1.482l0,0c-0.725-0.069-1.303-0.666-1.333-1.411l0,0c-0.032-0.814,0.602-1.5,1.416-1.532l0,0
						c0.814-0.032,1.5,0.602,1.532,1.416l0,0c0.03,0.757-0.519,1.404-1.251,1.514l0,0c0.738,0.071,1.32,0.686,1.335,1.443l0,0
						c0.012,0.757-0.548,1.394-1.283,1.49l0,0c0.738,0.084,1.305,0.71,1.303,1.47l0,0c-0.002,0.762-0.585,1.389-1.328,1.463l0,0
						c0.74,0.093,1.306,0.738,1.286,1.5l0,0c-0.02,0.762-0.615,1.377-1.36,1.433l0,0c0.738,0.113,1.286,0.77,1.246,1.532l0,0
						c-0.037,0.762-0.649,1.362-1.396,1.399l0,0c0.738,0.133,1.269,0.806,1.207,1.566l0,0c-0.059,0.762-0.688,1.345-1.436,1.362l0,0
						c0.733,0.155,1.242,0.843,1.158,1.605l0,0c-0.084,0.762-0.738,1.325-1.49,1.31l0,0c0.73,0.18,1.219,0.892,1.104,1.652l0,0
						c-0.116,0.76-0.787,1.296-1.536,1.254l0,0c0.72,0.216,1.17,0.951,1.02,1.704l0,0c-0.152,0.755-0.858,1.259-1.61,1.175l0,0
						c0.715,0.256,1.124,1.023,0.924,1.77l0,0c-0.202,0.747-0.942,1.207-1.691,1.067l0,0c0.696,0.314,1.045,1.118,0.779,1.849l0,0
						c-0.268,0.735-1.057,1.128-1.797,0.912l0,0c0.669,0.396,0.922,1.247,0.561,1.947l0,0c-0.361,0.701-1.21,0.991-1.92,0.666l0,0
						c0.602,0.514,0.693,1.419,0.197,2.043l0,0c-0.501,0.627-1.411,0.74-2.048,0.253l0,0l0,0l0,0
						c0.45,0.681,0.265,1.595-0.413,2.045l0,0c-0.681,0.45-1.596,0.266-2.045-0.415l0,0c0-0.003-0.002-0.003-0.002-0.005l0,0
						c0,0.005,0,0.01,0.002,0.015l0,0c0.14,0.804-0.396,1.566-1.197,1.708l0,0c-0.086,0.015-0.172,0.022-0.258,0.022l0,0
						C138.209,267.562,137.587,267.057,137.462,266.342z"/>
				</g>
				<g>
					<path style="fill:#FFFFFF;" d="M149.225,227.43c-0.096,0-0.192-0.007-0.288-0.027c-0.093-0.02-0.187-0.049-0.275-0.084
						c-0.091-0.037-0.175-0.084-0.256-0.137c-0.081-0.054-0.155-0.116-0.224-0.182c-0.275-0.275-0.433-0.654-0.433-1.042
						c0-0.098,0.01-0.194,0.029-0.29c0.02-0.093,0.047-0.187,0.084-0.275c0.037-0.089,0.084-0.175,0.135-0.253
						c0.054-0.081,0.116-0.157,0.184-0.226c0.069-0.066,0.143-0.128,0.224-0.182c0.081-0.054,0.165-0.101,0.256-0.135
						c0.088-0.039,0.182-0.066,0.275-0.086c0.189-0.037,0.386-0.037,0.575,0c0.096,0.02,0.187,0.047,0.278,0.086
						c0.089,0.034,0.175,0.081,0.253,0.135c0.081,0.054,0.157,0.116,0.226,0.182c0.066,0.069,0.128,0.145,0.182,0.226
						c0.054,0.079,0.098,0.165,0.135,0.253c0.037,0.088,0.066,0.182,0.084,0.275c0.02,0.096,0.029,0.192,0.029,0.29
						c0,0.388-0.157,0.767-0.433,1.042c-0.066,0.066-0.143,0.128-0.224,0.182c-0.079,0.054-0.165,0.101-0.253,0.137
						c-0.091,0.034-0.182,0.064-0.278,0.084C149.42,227.423,149.321,227.43,149.225,227.43z"/>
				</g>
			</g>
		</g>
		<g>
			<g>
				<path style="fill:#FB9E82;" d="M118.016,189.969c0,0-4.617-5.251-7.142-1.576c-2.526,3.675,1.056,15.039,7.183,12.428
					L118.016,189.969z"/>
				<g>
					<path style="fill:#FC7972;" d="M116.601,197.019c-0.226-0.002-0.431-0.153-0.493-0.381c-0.916-3.379-4.396-4.776-4.432-4.79
						c-0.265-0.104-0.396-0.403-0.293-0.668c0.103-0.265,0.402-0.397,0.667-0.294c0.163,0.063,3.998,1.59,5.053,5.481
						c0.074,0.275-0.088,0.558-0.363,0.633C116.694,197.013,116.647,197.02,116.601,197.019z"/>
				</g>
				<g>
					<g>
						<g>
							<path style="fill:#FC7972;" d="M113.091,195.29c-0.096-0.001-0.192-0.028-0.278-0.085c-0.238-0.157-0.305-0.476-0.148-0.714
								c0.026-0.04,0.652-0.977,1.95-1.544c0.259-0.115,0.565,0.005,0.679,0.266c0.114,0.261-0.005,0.565-0.266,0.679
								c-1.003,0.438-1.495,1.158-1.5,1.164C113.427,195.21,113.26,195.292,113.091,195.29z"/>
						</g>
					</g>
				</g>
			</g>
			<g>
				<path style="fill:#FB9E82;" d="M154.712,189.969c0,0,4.617-5.251,7.142-1.576c2.525,3.675-1.056,15.039-7.183,12.428
					L154.712,189.969z"/>
				<g>
					<path style="fill:#FC7972;" d="M156.127,197.019c0.225-0.002,0.431-0.153,0.493-0.381c0.916-3.379,4.396-4.776,4.432-4.79
						c0.265-0.104,0.396-0.403,0.293-0.668c-0.103-0.265-0.402-0.397-0.667-0.294c-0.162,0.063-3.998,1.59-5.053,5.481
						c-0.075,0.275,0.088,0.558,0.363,0.633C156.034,197.013,156.08,197.02,156.127,197.019z"/>
				</g>
				<g>
					<g>
						<g>
							<path style="fill:#FC7972;" d="M159.637,195.29c0.096-0.001,0.192-0.028,0.278-0.085c0.238-0.157,0.304-0.476,0.148-0.714
								c-0.026-0.04-0.652-0.977-1.95-1.544c-0.26-0.115-0.565,0.005-0.679,0.266c-0.114,0.261,0.005,0.565,0.266,0.679
								c1.003,0.438,1.495,1.158,1.5,1.164C159.301,195.21,159.467,195.292,159.637,195.29z"/>
						</g>
					</g>
				</g>
			</g>
			<g>
				<path style="fill:#FDBEAB;" d="M145.121,212.004v11.669c0,0-3.48,5.943-8.186,6.347c-4.701,0.41-8.879-5.117-8.879-5.117
					v-12.079L145.121,212.004z"/>
				<path style="fill:#FB9E82;" d="M145.121,212.004v5.178c-3.158,3.504-8.764,4.746-17.063,3.521l-0.001-7.878L145.121,212.004z"/>
				<path style="fill:#FDBEAB;" d="M157.423,182.036c-0.216,4.535-0.649,10.205-1.513,14.74c-0.216,1.131-0.46,2.195-0.732,3.149
					c-2.456,8.598-8.598,23.343-25.793,17.201c-7.594-2.711-11.114-11.17-12.683-19.773c-1.064-5.843-1.225-11.746-1.147-15.965
					c0.083-4.307,2.433-8.243,6.181-10.366c10.15-5.754,20.86-3.609,27.911-0.898C154.54,172.003,157.673,176.809,157.423,182.036z"
					/>
				<path style="fill:#01305A;" d="M133.655,170.348c0,0-7.592,13.044-15.734,15.181c-0.406,2.176-1.128,5.027-2.107,4.868
					c-1.128-0.184-1.163-3.051-1.091-4.654c-7.651-1.335,0.133-18.844,12.132-19.082L133.655,170.348z"/>
				<path style="fill:#01305A;" d="M158.269,183.139c0,0-0.912,7.515-2.483,7.257c-1.573-0.258-1.02-5.721-1.02-5.721l0.266-0.118
					c-30.477-1.871-28.149-17.671-28.149-17.671c32.193-7.024,31.057,9.648,31.387,15.569V183.139z"/>
				<path style="fill:#01305A;" d="M128.679,190.726c0,1.245-0.642,2.255-1.434,2.255c-0.792,0-1.434-1.01-1.434-2.255
					c0-1.246,0.642-2.255,1.434-2.255C128.037,188.47,128.679,189.48,128.679,190.726z"/>
				<path style="fill:#01305A;" d="M146.385,190.726c0,1.245-0.642,2.255-1.434,2.255c-0.792,0-1.434-1.01-1.434-2.255
					c0-1.246,0.642-2.255,1.434-2.255C145.743,188.47,146.385,189.48,146.385,190.726z"/>
				<path style="fill:#01305A;" d="M124.405,184.011c1.191-0.337,3.597-0.912,6.134-0.919c0.668-0.002,1.179,0.592,1.061,1.249
					l-0.003,0.017c-0.094,0.525-0.564,0.896-1.096,0.871c-1.726-0.08-6.259,0.162-8.399,1.029c-0.044-0.372,0.176-0.779,0.488-1.141
					C123.061,184.57,123.709,184.208,124.405,184.011z"/>
				<path style="fill:#01305A;" d="M147.572,184.057c-1.191-0.336-3.596-0.912-6.134-0.919c-0.668-0.002-1.179,0.592-1.061,1.249
					l0.003,0.017c0.094,0.525,0.564,0.896,1.096,0.871c1.727-0.081,6.259,0.162,8.399,1.029c0.044-0.372-0.176-0.779-0.488-1.141
					C148.916,184.616,148.268,184.254,147.572,184.057z"/>
				<g>
					<g>
						<path style="fill:#FB9E82;" d="M136.444,201.016c-0.424,0-0.85-0.075-1.205-0.287c-0.324-0.194-0.727-0.586-0.806-1.353
							c-0.211-2.037,0.311-8.424,0.333-8.695c0.025-0.305,0.292-0.532,0.598-0.507c0.305,0.025,0.532,0.293,0.507,0.598
							c-0.005,0.065-0.535,6.554-0.335,8.49c0.035,0.337,0.172,0.456,0.273,0.516c0.52,0.312,1.723-0.007,2.224-0.21
							c0.284-0.116,0.607,0.021,0.722,0.304c0.116,0.283-0.02,0.606-0.303,0.722C138.307,200.652,137.379,201.016,136.444,201.016z"
							/>
					</g>
				</g>
				<path style="fill:#FFFFFF;" d="M129.404,204.516c0.419,2.109,1.812,5.988,6.504,5.988c4.704,0,6.023-3.545,6.476-5.988H129.404z
					"/>
				<g>
					<path style="fill:#FB9E82;" d="M135.841,213.739c-1.354,0-2.55-0.729-2.6-0.76c-0.26-0.161-0.341-0.503-0.18-0.763
						c0.16-0.26,0.501-0.341,0.762-0.181l0,0c0.01,0.006,0.985,0.596,2.018,0.596c1.118,0,2.119-0.592,2.129-0.598
						c0.263-0.157,0.603-0.073,0.76,0.189c0.158,0.262,0.074,0.601-0.187,0.76C138.492,213.012,137.276,213.739,135.841,213.739z"/>
				</g>
			</g>
			<path style="fill:#01305A;" d="M114.346,179.811c-0.015,0.13-0.093,0.757-0.189,1.663
				C114.167,181.039,114.235,180.471,114.346,179.811z"/>
			<g>
				<g>
					<path style="fill:#FFFFFF;" d="M138.598,191.911c0-3.717,3.024-6.74,6.74-6.74c3.717,0,6.74,3.024,6.74,6.74
						c0,3.717-3.024,6.74-6.74,6.74C141.622,198.651,138.598,195.627,138.598,191.911z M139.649,191.911
						c0,3.137,2.552,5.689,5.689,5.689c3.137,0,5.689-2.552,5.689-5.689c0-3.137-2.552-5.69-5.689-5.69
						C142.201,186.221,139.649,188.773,139.649,191.911z"/>
				</g>
				<g>
					<path style="fill:#FFFFFF;" d="M120.175,191.911c0-3.717,3.023-6.74,6.74-6.74c3.717,0,6.74,3.024,6.74,6.74
						c0,3.717-3.024,6.74-6.74,6.74C123.199,198.651,120.175,195.627,120.175,191.911z M121.226,191.911
						c0,3.137,2.552,5.689,5.689,5.689c3.137,0,5.689-2.552,5.689-5.689c0-3.137-2.552-5.69-5.689-5.69
						C123.778,186.221,121.226,188.773,121.226,191.911z"/>
				</g>
				<g>
					<path style="fill:#FFFFFF;" d="M120.888,188.733c-0.179-0.117-3.429-2.212-7.075-2.9c-0.383-0.072-0.738,0.224-0.738,0.614l0,0
						c0,0.296,0.208,0.554,0.498,0.609c3.422,0.649,6.593,2.691,6.635,2.718c0.105,0.068,0.223,0.101,0.339,0.101
						c0.203,0,0.402-0.1,0.521-0.282C121.256,189.306,121.175,188.921,120.888,188.733z"/>
				</g>
				<g>
					<path style="fill:#FFFFFF;" d="M151.103,188.897c0.179-0.117,3.429-2.212,7.075-2.9c0.383-0.072,0.738,0.224,0.738,0.614l0,0
						c0,0.296-0.208,0.554-0.499,0.609c-3.422,0.649-6.593,2.691-6.635,2.718c-0.105,0.068-0.223,0.101-0.339,0.101
						c-0.203,0-0.402-0.1-0.521-0.282C150.734,189.47,150.815,189.085,151.103,188.897z"/>
				</g>
				<g>
					<path style="fill:#FFFFFF;" d="M133.285,190.397c0.012-0.016,1.26-1.704,2.901-1.704c1.625,0,2.753,1.685,2.764,1.702
						l0.88-0.574c-0.058-0.089-1.444-2.178-3.644-2.178c-2.184,0-3.69,2.053-3.754,2.141L133.285,190.397z"/>
				</g>
			</g>
		</g>
		<g>
			<path style="fill:#FD7C78;" d="M184.022,300.151c-3.678,10.531-20.153,9.765-38.917,4.007c-0.027-0.008-0.054-0.017-0.082-0.025
				c-0.059-0.017-0.116-0.037-0.176-0.054l-2.581-0.823c-0.356-0.116-0.714-0.235-1.07-0.356c-2.022-0.677-4.059-1.409-6.104-2.185
				c-6.704-2.546-13.461-5.565-19.832-8.784l0.044-0.111l1.918-4.984l0.655-1.696c0,0,34.786,3.79,52.276,0.134
				c0.297-0.062,0.586-0.124,0.87-0.19c-0.069-0.388-0.091-0.784-0.2-1.155c-9.267-31.55,0.868-37.599,4.259-42
				C175.085,241.929,190.967,280.27,184.022,300.151z"/>
			<g>
				<path style="fill:#D64E5A;" d="M178.354,290.386c-0.104,0.049-0.215,0.074-0.324,0.074c-0.274,0-0.539-0.153-0.667-0.415
					c-1.325-2.714-5.824-4.329-7.206-4.771c0.297-0.062,0.586-0.124,0.87-0.19c-0.069-0.388-0.136-0.774-0.2-1.155
					c1.758,0.581,6.348,2.351,7.869,5.466C178.875,289.76,178.722,290.205,178.354,290.386z"/>
			</g>
			<g>
				<path style="fill:#D64E5A;" d="M129.632,289.064c-7.1,0-12.864-0.408-13.367-0.445c-0.409-0.03-0.715-0.385-0.686-0.794
					c0.03-0.409,0.385-0.712,0.794-0.686c0.262,0.019,26.356,1.865,36.644-2.309c0.379-0.154,0.812,0.029,0.966,0.409
					c0.154,0.379-0.029,0.812-0.408,0.966C147.88,288.516,137.86,289.064,129.632,289.064z"/>
			</g>
			<g>
				<path style="fill:#D64E5A;" d="M142.267,303.256c0.003,0,0.003,0,0.003,0c5.953-1.641,11.365-3.241,14.489-4.242
					c4.339-1.392,7.928-5.777,9.56-9.505c0.163-0.376,0.601-0.546,0.977-0.381c0.376,0.163,0.546,0.601,0.383,0.977
					c-1.765,4.032-5.686,8.788-10.467,10.324c-2.268,0.727-5.731,1.766-9.734,2.908
					C145.771,303.823,143.958,303.795,142.267,303.256L142.267,303.256z"/>
			</g>
			<g>
				<path style="fill:#FD7C78;" d="M158.314,298.156c-53.759,18.106-70.298,6.257-70.298,6.257
					c-3.619-32.729,9.718-62.16,9.718-62.16c3.941,6.497,8.395,17.837,8.395,17.837l1.177,25.087l-0.089,0.697l-0.042,0.329
					l-0.223,1.716l-0.005,0.034c0.114,0.025,0.23,0.049,0.346,0.074c16.262,3.431,46.002-0.403,46.002-0.403L158.314,298.156z"/>
				<g>
					<path style="fill:#D64E5A;" d="M107.294,288.027c-2.902,2.433-5.659,5.236-8.116,8.457c-0.247,0.326-0.715,0.391-1.041,0.141
						c-0.326-0.247-0.388-0.712-0.143-1.038c0.002,0,0.002-0.003,0.002-0.003c2.761-3.627,5.891-6.732,9.179-9.382l-0.223,1.716
						l-0.005,0.034C107.061,287.978,107.178,288.003,107.294,288.027z"/>
				</g>
				<path style="fill:#FDBEAB;" d="M153.296,287.625c0,0,5.952-13.52,15-12.317l2.729,9.775c-4.953,2.103-5.678,10.597-12.71,13.072
					L153.296,287.625z"/>
			</g>
			<path style="fill:#FDBEAB;" d="M117.881,285.14c0,0-3.758-8.822-13.65-11.383c-9.892-2.561-16.194,2.1-16.858,3.86
				c-0.664,1.759,3.731,0.078,3.731,0.078s-2.862,0.81-4.504,3.5c-1.642,2.69,3.996-0.212,3.996-0.212s-4.043,1.772-4.557,3.415
				c-0.514,1.643,4.819-1.133,5.821-1.08c0,0-4.762,1.893-4.73,3.588c0.032,1.695,5.47-1.069,9.531-0.851
				c4.061,0.219,10.287,1.901,10.287,1.901c3.323,0.632,6.499,1.1,9.372,1.233L117.881,285.14z"/>
		</g>
	</g>
	<g>
		<path style="fill:#001336;" d="M313.884,310.418v59.307c0,4.005-3.244,7.249-7.247,7.249H189.612
			c-4.002,0-7.247-3.244-7.247-7.249v-59.307c0-4.002,3.244-7.247,7.247-7.247h117.025
			C310.64,303.171,313.884,306.415,313.884,310.418z"/>
		<path style="fill:#01305A;" d="M313.884,314.404v55.321c0,4.005-3.244,7.249-7.247,7.249H189.612
			c-4.002,0-7.247-3.244-7.247-7.249v-55.321c0-4.002,3.244-7.247,7.247-7.247h117.025
			C310.64,307.158,313.884,310.402,313.884,314.404z"/>
		<rect x="237.94" y="376.89" style="fill:#001336;" width="20.369" height="23.22"/>
		<path style="fill:#3B73A9;" d="M258.006,340.977c0,5.583-4.526,10.109-10.109,10.109c-5.583,0-10.109-4.526-10.109-10.109
			c0-5.583,4.526-10.109,10.109-10.109C253.48,330.868,258.006,335.394,258.006,340.977z"/>
		<path style="fill:#01305A;" d="M274.068,400.11H221.53v-2.126c0-3.375,2.736-6.111,6.111-6.111h40.316
			c3.375,0,6.111,2.736,6.111,6.111V400.11z"/>
	</g>
	<g>
		<g>
			<path style="fill:#FD7C78;" d="M82.669,401.331H65.458c-2.341,0-4.415-1.507-5.138-3.733l-7.299-22.467
				c-0.299-0.919,0.342-1.874,1.306-1.949c13.29-1.03,26.449-1.031,39.478-0.003c0.962,0.076,1.602,1.031,1.303,1.949l-7.3,22.47
				C87.085,399.823,85.01,401.331,82.669,401.331z"/>
			<ellipse style="fill:#01305A;" cx="74.181" cy="374.813" rx="19.398" ry="1.082"/>
			<g>
				<g>
					<path style="fill:#015288;" d="M74.973,374.813v-28.032c0-0.502-0.407-0.909-0.91-0.909c-0.502,0-0.91,0.407-0.91,0.909v28.032
						C73.755,375.168,74.361,375.162,74.973,374.813z"/>
				</g>
				<g>
					<path style="fill:#3B73A9;" d="M74.064,353.384c0,0,1.724-12.43,17.64-12.43C91.704,340.953,88.976,358.538,74.064,353.384z"/>
				</g>
				<g>
					<path style="fill:#3B73A9;" d="M74.878,357.202c0,0-1.724-12.43-17.64-12.43C57.238,344.772,59.966,362.356,74.878,357.202z"/>
				</g>
				<g>
					<path style="fill:#3B73A9;" d="M75.057,368.243c0,0-4.076-11.869-19.697-8.816C55.36,359.427,61.411,376.161,75.057,368.243z"
						/>
				</g>
				<g>
					<path style="fill:#3B73A9;" d="M74.051,368.143c0,0,11.695,4.55,19.449-9.351C93.5,358.793,76.814,352.61,74.051,368.143z"/>
				</g>
			</g>
		</g>
	</g>
</g>
<g id="DESIGNED_BY_FREEPIK">
	<g>
		<g id="XMLID_1_">
			<g id="XMLID_20_">
				<path id="XMLID_28_" style="fill:#112129;" d="M260.104,465.465c-0.432,0.443-0.803,0.931-1.108,1.453l-0.465-0.241
					c-0.067-0.298-0.349-0.503-0.659-0.466c-0.331,0.039-0.568,0.339-0.529,0.67c0.039,0.331,0.339,0.568,0.67,0.529
					c0.065-0.008,0.127-0.026,0.183-0.052l0.452,0.234c-0.251,0.554-0.433,1.139-0.539,1.744l0.747,0.132
					c0.23-1.306,0.85-2.507,1.792-3.473L260.104,465.465z"/>
				<path id="XMLID_27_" style="fill:#112129;" d="M265.592,463.163c-0.171,0-0.341,0.006-0.51,0.017l-0.074-0.626
					c0.188-0.149,0.296-0.389,0.266-0.645c-0.046-0.393-0.402-0.674-0.795-0.628c-0.393,0.046-0.674,0.402-0.628,0.795
					c0.03,0.254,0.189,0.461,0.405,0.564l0.073,0.624c-0.714,0.116-1.403,0.332-2.06,0.646l0.327,0.684
					c0.934-0.447,1.942-0.673,2.995-0.673c0.496,0,0.993,0.053,1.475,0.158l0.161-0.741
					C266.692,463.222,266.142,463.163,265.592,463.163z"/>
				<path id="XMLID_26_" style="fill:#112129;" d="M272.194,465.711c0.331-0.04,0.566-0.341,0.526-0.672
					c-0.04-0.331-0.341-0.566-0.672-0.526c-0.309,0.038-0.535,0.304-0.53,0.609l-0.416,0.363c-0.418-0.43-0.89-0.813-1.408-1.139
					l-0.404,0.641c1.134,0.715,2.021,1.726,2.563,2.925l0.691-0.313c-0.251-0.554-0.568-1.072-0.942-1.545l0.402-0.351
					C272.065,465.716,272.129,465.719,272.194,465.711z"/>
				<path id="XMLID_25_" style="fill:#112129;" d="M265.044,473.372c-0.386,0.023-0.775,0.035-1.157,0.035
					c-0.88,0-1.733-0.061-2.478-0.179c-0.39-0.062-0.846-0.155-1.27-0.292c1.046,1.861,3.069,3.125,5.388,3.125
					c2.855,0,5.262-1.916,5.95-4.504c-0.682,0.449-1.505,0.825-2.459,1.123C267.839,473.047,266.464,473.286,265.044,473.372z"/>
				<path id="XMLID_21_" style="fill:#112129;" d="M265.592,464.68c-3.352,0-6.08,2.666-6.08,5.943c0,0.426,0.046,0.849,0.137,1.261
					c0.673,0.483,2.706,0.89,5.348,0.731c2.879-0.173,5.297-0.957,6.672-2.159c-0.005-0.195-0.021-0.39-0.045-0.582
					C271.244,466.913,268.65,464.68,265.592,464.68z M263.432,471.194c-1.02,0-1.85-0.83-1.85-1.85c0-1.02,0.83-1.85,1.85-1.85
					c1.02,0,1.85,0.83,1.85,1.85C265.282,470.365,264.452,471.194,263.432,471.194z M268.17,470.286c-0.75,0-1.36-0.61-1.36-1.36
					s0.61-1.361,1.36-1.361c0.75,0,1.361,0.61,1.361,1.361S268.92,470.286,268.17,470.286z"/>
			</g>
			<path id="XMLID_18_" style="fill:#112129;" d="M281.595,466.547c-0.295-0.116-0.805-0.309-1.382-0.237
				c-0.551,0.069-0.844,0.341-0.844,1.007v0.866h2.228v1.717h-2.228v5.455h-1.932v-5.455h-1.34v-1.717h1.34v-0.888
				c0-1.68,0.896-2.783,2.568-2.783c0.643,0,1.157,0.122,1.59,0.308L281.595,466.547z"/>
			<path id="XMLID_16_" style="fill:#112129;" d="M286.298,469.879c-0.177-0.03-0.358-0.046-0.526-0.046
				c-0.896,0-1.51,0.548-1.51,1.614v3.908h-1.932v-7.172h1.873v0.785c0.451-0.673,1.14-0.977,2.021-0.977
				c0.414,0,0.848,0.128,1.094,0.337L286.298,469.879z"/>
			<path id="XMLID_13_" style="fill:#112129;" d="M293.965,471.757c0,0.222-0.015,0.489-0.037,0.651h-5.085
				c0.207,1.036,0.933,1.488,1.843,1.488c0.622,0,1.295-0.252,1.813-0.688l1.132,1.243c-0.814,0.748-1.85,1.088-3.057,1.088
				c-2.198,0-3.723-1.495-3.723-3.753c0-2.258,1.48-3.797,3.627-3.797C292.544,467.99,293.958,469.522,293.965,471.757z
				 M288.851,471.091h3.175c-0.177-0.918-0.733-1.436-1.562-1.436C289.554,469.655,289.021,470.203,288.851,471.091z"/>
			<path id="XMLID_10_" style="fill:#112129;" d="M301.618,471.757c0,0.222-0.015,0.489-0.037,0.651h-5.085
				c0.207,1.036,0.933,1.488,1.843,1.488c0.622,0,1.295-0.252,1.813-0.688l1.132,1.243c-0.814,0.748-1.85,1.088-3.057,1.088
				c-2.198,0-3.723-1.495-3.723-3.753c0-2.258,1.48-3.797,3.627-3.797C300.197,467.99,301.611,469.522,301.618,471.757z
				 M296.504,471.091h3.175c-0.178-0.918-0.733-1.436-1.562-1.436C297.207,469.655,296.674,470.203,296.504,471.091z"/>
			<path id="XMLID_7_" style="fill:#112129;" d="M309.964,471.764c0,2.154-1.495,3.775-3.471,3.775
				c-0.962,0-1.643-0.378-2.109-0.933v3.708h-1.924v-10.133h1.887v0.792c0.466-0.585,1.155-0.984,2.139-0.984
				C308.469,467.99,309.964,469.61,309.964,471.764z M304.287,471.764c0,1.132,0.747,1.976,1.843,1.976
				c1.14,0,1.85-0.881,1.85-1.976c0-1.095-0.71-1.976-1.85-1.976C305.035,469.788,304.287,470.632,304.287,471.764z"/>
			<path id="XMLID_4_" style="fill:#112129;" d="M313.068,465.836c0,0.696-0.54,1.229-1.236,1.229c-0.696,0-1.229-0.533-1.229-1.229
				c0-0.696,0.533-1.243,1.229-1.243C312.527,464.592,313.068,465.14,313.068,465.836z M312.809,475.354h-1.932v-7.172h1.932
				V475.354z"/>
			<path id="XMLID_2_" style="fill:#112129;" d="M316.032,470.736l2.701-2.554h2.368l-3.479,3.375l3.501,3.797h-2.376l-2.716-2.901
				v2.901H314.1v-10.658h1.932V470.736z"/>
		</g>
		<g>
			<path style="fill:#112129;" d="M184.412,475.289v-1.055c-0.527,0.718-1.391,1.23-2.387,1.23c-1.846,0-3.149-1.406-3.149-3.706
				c0-2.256,1.289-3.721,3.149-3.721c0.952,0,1.816,0.469,2.387,1.245v-3.765h1.099v9.77H184.412z M184.412,473.37v-3.208
				c-0.395-0.615-1.245-1.143-2.124-1.143c-1.421,0-2.27,1.172-2.27,2.739c0,1.567,0.85,2.724,2.27,2.724
				C183.168,474.483,184.017,473.986,184.412,473.37z"/>
			<path style="fill:#112129;" d="M186.932,471.744c0-2.051,1.465-3.706,3.486-3.706c2.139,0,3.398,1.67,3.398,3.794v0.279h-5.727
				c0.088,1.333,1.025,2.446,2.549,2.446c0.805,0,1.626-0.322,2.182-0.894l0.527,0.718c-0.703,0.703-1.655,1.084-2.812,1.084
				C188.44,475.465,186.932,473.956,186.932,471.744z M190.403,468.947c-1.509,0-2.256,1.274-2.314,2.358h4.643
				C192.718,470.25,192.015,468.947,190.403,468.947z"/>
			<path style="fill:#112129;" d="M194.607,474.351l0.571-0.791c0.469,0.542,1.362,1.011,2.329,1.011c1.084,0,1.67-0.513,1.67-1.216
				c0-1.714-4.38-0.659-4.38-3.281c0-1.098,0.952-2.036,2.636-2.036c1.201,0,2.051,0.454,2.622,1.026l-0.513,0.762
				c-0.424-0.513-1.201-0.894-2.109-0.894c-0.967,0-1.567,0.483-1.567,1.113c0,1.552,4.38,0.527,4.38,3.281
				c0,1.187-0.952,2.138-2.783,2.138C196.306,475.465,195.325,475.113,194.607,474.351z"/>
			<path style="fill:#112129;" d="M201.477,466.471c0-0.41,0.337-0.747,0.732-0.747c0.41,0,0.747,0.337,0.747,0.747
				c0,0.41-0.337,0.732-0.747,0.732C201.814,467.203,201.477,466.881,201.477,466.471z M201.667,475.289v-7.075h1.099v7.075H201.667
				z"/>
			<path style="fill:#112129;" d="M204.582,477.105l0.556-0.82c0.586,0.703,1.289,0.967,2.3,0.967c1.172,0,2.27-0.571,2.27-2.124
				v-1.011c-0.513,0.718-1.377,1.26-2.373,1.26c-1.845,0-3.149-1.377-3.149-3.662c0-2.27,1.289-3.677,3.149-3.677
				c0.952,0,1.802,0.469,2.373,1.245v-1.069h1.098v6.87c0,2.344-1.641,3.076-3.369,3.076
				C206.237,478.16,205.417,477.926,204.582,477.105z M209.709,473.253v-3.091c-0.381-0.615-1.23-1.143-2.109-1.143
				c-1.421,0-2.27,1.128-2.27,2.695c0,1.553,0.849,2.695,2.27,2.695C208.478,474.41,209.328,473.868,209.709,473.253z"/>
			<path style="fill:#112129;" d="M217.413,475.289v-4.629c0-1.245-0.63-1.641-1.582-1.641c-0.865,0-1.685,0.527-2.095,1.099v5.17
				h-1.099v-7.075h1.099v1.025c0.498-0.586,1.465-1.201,2.519-1.201c1.48,0,2.256,0.747,2.256,2.285v4.966H217.413z"/>
			<path style="fill:#112129;" d="M219.932,471.744c0-2.051,1.465-3.706,3.486-3.706c2.139,0,3.398,1.67,3.398,3.794v0.279h-5.727
				c0.088,1.333,1.025,2.446,2.549,2.446c0.806,0,1.626-0.322,2.183-0.894l0.527,0.718c-0.703,0.703-1.655,1.084-2.812,1.084
				C221.441,475.465,219.932,473.956,219.932,471.744z M223.404,468.947c-1.509,0-2.256,1.274-2.314,2.358h4.643
				C225.718,470.25,225.015,468.947,223.404,468.947z"/>
			<path style="fill:#112129;" d="M233.35,475.289v-1.055c-0.527,0.718-1.392,1.23-2.388,1.23c-1.846,0-3.149-1.406-3.149-3.706
				c0-2.256,1.289-3.721,3.149-3.721c0.952,0,1.817,0.469,2.388,1.245v-3.765h1.098v9.77H233.35z M233.35,473.37v-3.208
				c-0.396-0.615-1.245-1.143-2.124-1.143c-1.421,0-2.27,1.172-2.27,2.739c0,1.567,0.849,2.724,2.27,2.724
				C232.105,474.483,232.954,473.986,233.35,473.37z"/>
			<path style="fill:#112129;" d="M239.692,475.289v-9.77h1.098v3.765c0.572-0.776,1.421-1.245,2.388-1.245
				c1.845,0,3.149,1.465,3.149,3.721c0,2.299-1.304,3.706-3.149,3.706c-0.996,0-1.86-0.513-2.388-1.23v1.055H239.692z
				 M242.9,474.483c1.436,0,2.285-1.157,2.285-2.724c0-1.568-0.85-2.739-2.285-2.739c-0.864,0-1.728,0.527-2.109,1.143v3.208
				C241.171,473.986,242.036,474.483,242.9,474.483z"/>
			<path style="fill:#112129;" d="M247.528,477.061c0.161,0.073,0.425,0.117,0.601,0.117c0.483,0,0.805-0.161,1.055-0.747
				l0.469-1.069l-2.959-7.148h1.187l2.358,5.8l2.344-5.8h1.201l-3.545,8.51c-0.425,1.025-1.143,1.421-2.08,1.435
				c-0.234,0-0.601-0.044-0.806-0.103L247.528,477.061z"/>
		</g>
	</g>
</g>
</svg>
